<?xml version="1.0" standalone="no"?>
<!DOCTYPE svg PUBLIC "-//W3C//DTD SVG 1.1//EN" "http://www.w3.org/Graphics/SVG/1.1/DTD/svg11.dtd" >
<svg xmlns="http://www.w3.org/2000/svg">
<metadata></metadata>
<defs>
<font id="tide_sans200_lil_mondo" horiz-adv-x="1529" >
<font-face units-per-em="2048" ascent="1638" descent="-410" />
<missing-glyph horiz-adv-x="778" />
<glyph unicode="&#xfb01;" horiz-adv-x="1327" d="M104 1004v92h183v63q0 105 36 186.5t97 129.5t134.5 72t156.5 24q205 0 395 -129l-43 -84q-171 126 -348 123q-64 -1 -120.5 -20t-103.5 -56.5t-74.5 -101t-27.5 -144.5v-63h709v-1096h-103v1004h-606v-1004h-102v1004h-183z" />
<glyph unicode="&#xfb02;" horiz-adv-x="1318" d="M104 1004v92h172v45q0 94 25.5 170t68 125.5t99.5 82.5t117 47.5t125 14.5q185 0 374 -131v-1450h-104v1403q-135 86 -274 86q-47 -1 -90.5 -11.5t-87.5 -35.5t-76.5 -63t-53 -98.5t-20.5 -137.5v-47h289v-92h-289v-1004h-103v1004h-172z" />
<glyph horiz-adv-x="2048" />
<glyph horiz-adv-x="2048" />
<glyph unicode="&#xd;" horiz-adv-x="2048" />
<glyph unicode=" "  horiz-adv-x="778" />
<glyph unicode="&#x09;" horiz-adv-x="778" />
<glyph unicode="&#xa0;" horiz-adv-x="778" />
<glyph unicode="!" horiz-adv-x="684" d="M266 66q0 31 21.5 53t52.5 22t52.5 -22t21.5 -53t-22.5 -52.5t-51.5 -21.5q-28 0 -51 22t-23 52zM291 1440h115l-15 -1147h-90z" />
<glyph unicode="&#x22;" horiz-adv-x="454" d="M100 1409v102h95v-102l-19 -111h-55zM260 1409v102h94v-102l-18 -111h-55z" />
<glyph unicode="#" horiz-adv-x="1642" d="M135 346v90h324l55 436h-317v89h327l45 352h90l-45 -352h459l45 352h90l-45 -352h346v-89h-356l-55 -436h350v-90h-361l-43 -346h-90l43 346h-458l-43 -346h-90l43 346h-314zM549 436h459l55 436h-459z" />
<glyph unicode="$" horiz-adv-x="1200" d="M133 322l41 81q94 -64 213.5 -103t237.5 -38q54 1 104.5 12.5t96 34t75 62t33.5 90.5q5 42 -12.5 75.5t-44.5 54.5t-77 38.5t-88.5 26t-101.5 20.5q-152 28 -210 52q-137 58 -129 194q0 8 1 16q13 135 130.5 212t289.5 75l25 137l78 -12l-23 -129q122 -16 289 -101 l-35 -78q-178 99 -346 99q-125 -2 -217 -55.5t-103 -147.5q-3 -27 3 -49.5t16.5 -38t31.5 -28.5t39 -21t50 -15.5t52.5 -11t58.5 -9.5l57 -9q64 -11 113 -24t100.5 -36.5t84 -54t50.5 -78t12 -106.5q-6 -74 -45.5 -131t-99 -90t-127.5 -49.5t-140 -16.5h-6l-22 -135l-80 14 l20 125q-203 22 -395 148z" />
<glyph unicode="%" horiz-adv-x="1607" d="M150 1153q0 127 90 216t219 89q130 0 218.5 -89.5t88.5 -215.5q0 -128 -88.5 -216.5t-218.5 -88.5q-128 0 -218.5 88.5t-90.5 216.5zM223 1153q0 -99 68 -168.5t170 -69.5q99 0 167 69.5t68 168.5t-68 167.5t-167 68.5q-101 0 -169.5 -68.5t-68.5 -167.5zM276 0l932 1434 h101l-934 -1434h-99zM842 285q0 128 89.5 217.5t219.5 89.5q129 0 217 -90.5t88 -216.5q0 -128 -87.5 -216.5t-217.5 -88.5q-129 0 -219 88t-90 217zM915 285q0 -99 67.5 -167.5t168.5 -68.5q99 0 167 68.5t68 167.5t-68 167t-167 68q-101 0 -168.5 -68t-67.5 -167z" />
<glyph unicode="&#x26;" horiz-adv-x="1662" d="M143 358q0 57 14.5 107.5t37.5 89.5t61.5 74.5t75.5 61t91 51.5t96 43.5t102 39.5l-37 37q-69 73 -106.5 143.5t-37.5 151.5q0 145 110 237.5t267 92.5q158 0 256 -92t98 -232q0 -60 -21 -110.5t-53 -86.5t-85 -69.5t-101.5 -55.5t-117.5 -48l424 -437q80 147 92 330h106 q-9 -226 -119 -410l269 -276h-140l-188 190q-103 -128 -247 -200t-306 -72q-143 0 -264 48.5t-199 150.5t-78 241zM252 354q0 -105 58.5 -182.5t153.5 -115.5t212 -38q148 0 273 66.5t212 183.5l-471 486q-58 -22 -95 -37t-88.5 -39t-83.5 -45.5t-68 -52t-56 -63 t-33.5 -74.5t-13.5 -89zM545 1163q0 -118 137 -258l41 -41q66 25 109.5 43.5t93 46.5t78 56.5t48 69t19.5 87.5q0 96 -68.5 162t-185.5 66q-120 0 -195 -67t-77 -165z" />
<glyph unicode="'" horiz-adv-x="294" d="M100 1409v102h95v-102l-19 -111h-55z" />
<glyph unicode="(" horiz-adv-x="780" d="M147 606q0 260 69.5 500t199.5 493l90 -47q-250 -489 -250 -946q0 -460 258 -952l-90 -49q-136 265 -206.5 501t-70.5 500z" />
<glyph unicode=")" horiz-adv-x="780" d="M266 -346q258 492 258 952q0 457 -250 946l91 47q130 -252 199 -492.5t69 -500.5q0 -264 -70.5 -500t-206.5 -501z" />
<glyph unicode="*" horiz-adv-x="962" d="M174 1331l19 72l256 -57l2 258h71l-6 -258l254 49l21 -68l-256 -51l167 -234l-59 -36l-164 229l-145 -225l-58 39l152 229z" />
<glyph unicode="+" horiz-adv-x="1441" d="M233 758h439v483h92v-483h444v-86h-444v-486h-92v486h-436z" />
<glyph unicode="," horiz-adv-x="446" d="M141 63q0 29 21.5 50.5t52.5 21.5q38 0 64 -29t26 -77q0 -61 -43.5 -107t-109.5 -55l2 55q58 17 61 76q-31 -5 -52.5 14t-21.5 51z" />
<glyph unicode="-" horiz-adv-x="819" d="M88 666v90h643v-90h-643z" />
<glyph unicode="." horiz-adv-x="434" d="M141 63q0 32 22 54t54 22q31 0 53.5 -22t22.5 -54t-23.5 -53.5t-52.5 -21.5q-31 0 -53.5 21.5t-22.5 53.5z" />
<glyph unicode="/" horiz-adv-x="880" d="M141 -193l510 1737h99l-510 -1734z" />
<glyph unicode="0" horiz-adv-x="1536" d="M150 719q0 159 39 287.5t101.5 210.5t145 137.5t165 78.5t165.5 23q84 -1 167 -24t166 -79t145.5 -138t102 -210.5t39.5 -287.5q0 -133 -27 -246t-74.5 -192t-108.5 -139t-131.5 -95.5t-140 -52.5t-138.5 -17q-83 0 -165.5 23.5t-165 80t-145 139.5t-101.5 212.5 t-39 288.5zM258 721q0 -140 33 -253.5t85 -184.5t120.5 -119.5t135.5 -68t134 -19.5q69 0 136.5 19t137 66.5t122 117.5t85.5 183t33 253t-33.5 253t-86 183.5t-122 118.5t-137 67t-135.5 19q-67 0 -134 -18.5t-135.5 -65.5t-120.5 -116.5t-85 -182t-33 -252.5z" />
<glyph unicode="1" horiz-adv-x="712" d="M137 1296l199 138h98v-1434h-106v1333l-150 -102z" />
<glyph unicode="2" horiz-adv-x="1388" d="M131 0l2 88l703 545q121 95 177 185t56 190q0 148 -107 246t-274 98q-143 0 -247.5 -77t-159.5 -214l-93 49q70 160 202 251t304 91q206 0 344 -124t138 -314q0 -238 -267 -449l-594 -465h924l-2 -100h-1106z" />
<glyph unicode="3" horiz-adv-x="1363" d="M123 164l47 86q248 -164 504 -164q182 0 303 84.5t121 216.5q0 130 -117 220.5t-299 90.5h-227v101h221q155 0 254.5 81t99.5 197t-101.5 195.5t-266.5 79.5q-202 0 -404 -125l-43 88q222 137 455 137q202 0 335 -100t132 -258q-1 -127 -88.5 -221.5t-208.5 -112.5 q95 -12 176 -59t134.5 -131t53.5 -187q0 -122 -73 -213.5t-192.5 -137.5t-264.5 -46q-284 0 -551 178z" />
<glyph unicode="4" horiz-adv-x="1349" d="M84 336v80l815 1018h105v-1000h227v-98h-227v-336h-105v336h-815zM215 434h686v854z" />
<glyph unicode="5" horiz-adv-x="1398" d="M176 172l53 80q89 -74 199.5 -120.5t230.5 -45.5q86 0 166 26.5t143.5 75.5t101.5 127t38 174q0 87 -32 158t-86.5 116t-124.5 69t-148 24q-198 0 -406 -149l-67 38l61 689h817v-101h-723l-45 -524q201 137 402 137q93 0 175.5 -29.5t146.5 -85t101.5 -143t37.5 -194.5 q0 -119 -46 -217t-123.5 -161t-177 -97.5t-208.5 -34.5q-261 0 -486 188z" />
<glyph unicode="6" horiz-adv-x="1441" d="M152 692q0 157 39.5 286t104.5 215.5t153 146t182 86t194 26.5q193 0 383 -113l-43 -90q-154 103 -336 103q-85 0 -165 -22.5t-154 -73.5t-129 -125.5t-88 -187t-33 -249.5l2 -49q92 159 239.5 241.5t301.5 82.5q142 0 256 -59t180 -167.5t66 -246.5q0 -116 -46.5 -213.5 t-124 -161.5t-176 -99.5t-204.5 -35.5q-95 0 -182.5 27t-164.5 84.5t-133.5 139.5t-89 199t-32.5 256zM274 530q40 -211 173.5 -327.5t310.5 -116.5q83 0 161 26.5t140 76t99.5 127t37.5 171.5q0 171 -114 277t-289 106q-94 0 -185.5 -33t-182 -111.5t-151.5 -195.5z" />
<glyph unicode="7" horiz-adv-x="1292" d="M121 1325v109h1034v-99l-743 -1335h-136l752 1325h-907z" />
<glyph unicode="8" horiz-adv-x="1499" d="M168 367q-1 83 38.5 155t101.5 117.5t126 73t121 35.5q-52 9 -105.5 35t-101 65.5t-77.5 98t-31 124.5q-2 106 65.5 192.5t184 135.5t258.5 51q133 2 246 -40t184 -126.5t73 -196.5q1 -70 -30 -132t-79.5 -102.5t-103.5 -66t-108 -32.5q45 -7 95 -24.5t105.5 -49.5 t99 -72.5t72 -99t29.5 -123.5q3 -180 -159 -295.5t-418 -120.5q-262 -3 -422.5 110t-163.5 288zM276 375q2 -130 133 -219.5t345 -85.5q206 3 339 94t130 227q-3 132 -141 219t-332 82q-128 -2 -236 -40.5t-174 -111.5t-64 -165zM346 1067q2 -112 114.5 -192.5t289.5 -77.5 q172 4 282.5 85t108.5 197q-3 121 -119 199t-277 76q-170 -2 -286 -84t-113 -203z" />
<glyph unicode="9" horiz-adv-x="1437" d="M141 946q0 117 46.5 215t124 162t176.5 99.5t206 35.5q93 0 179 -26.5t163 -83t134 -138t90.5 -199.5t33.5 -259q0 -154 -35 -281.5t-95.5 -216t-144 -150t-178.5 -90t-200 -28.5q-243 0 -434 143l41 88q173 -131 389 -131q110 0 206 38.5t173.5 115t123.5 204t48 293.5 q0 32 -4 94q-64 -168 -214.5 -264t-326.5 -96q-140 0 -254 57.5t-181 167t-67 250.5zM250 952q0 -171 113.5 -278t291.5 -107q170 0 307.5 96.5t202.5 280.5q-48 199 -178 306.5t-297 107.5q-84 0 -162.5 -27.5t-141 -78t-100 -129t-36.5 -171.5z" />
<glyph unicode=":" horiz-adv-x="401" d="M127 78q0 31 21 52.5t53 21.5q31 0 52 -21.5t21 -52.5q0 -33 -22 -54.5t-51 -21.5q-30 0 -52 22t-22 54zM127 827q0 32 21 54t53 22q31 0 52 -22t21 -54t-22 -52.5t-51 -20.5q-30 0 -52 21t-22 52z" />
<glyph unicode=";" horiz-adv-x="434" d="M135 821q0 32 22 54t54 22q31 0 52.5 -22t21.5 -54t-23 -54t-51 -22q-31 0 -53.5 22t-22.5 54zM160 63q0 29 21 50.5t52 21.5q37 0 63 -29t26 -77q0 -61 -43 -107t-109 -55l2 55q56 17 61 76q-31 -5 -52 14t-21 51z" />
<glyph unicode="&#x3c;" horiz-adv-x="1458" d="M96 662v92l1032 340l27 -93l-936 -292l936 -289l-25 -92z" />
<glyph unicode="=" horiz-adv-x="1423" d="M244 580h936v-86h-934zM244 920h936v-86h-934z" />
<glyph unicode="&#x3e;" horiz-adv-x="1458" d="M168 420l936 289l-936 292l27 93l1030 -340v-92l-1032 -334z" />
<glyph unicode="?" horiz-adv-x="1331" d="M160 1114q54 148 160.5 237.5t252.5 106.5q129 15 240.5 -24.5t179.5 -129t68 -210.5q0 -81 -25.5 -141.5t-66 -99.5t-89.5 -74t-99 -74.5t-91 -89t-67.5 -131.5t-28.5 -189l-105 -2q0 92 16 168t43 129t61.5 96.5t73.5 74.5t77.5 59t73 55t61.5 56.5t43 70.5t16 90 q0 135 -107 211.5t-253 58.5q-247 -30 -344 -291zM465 68q0 31 22 53t54 22q31 0 52 -22t21 -53q0 -32 -22.5 -54t-50.5 -22q-31 0 -53.5 22t-22.5 54z" />
<glyph unicode="@" horiz-adv-x="2105" d="M152 518q16 192 103.5 359t221 282.5t305.5 181.5t355 66q184 0 343 -66t270 -182t167 -283t37 -358q-13 -123 -54 -223.5t-97.5 -161.5t-120.5 -93t-128 -30q-73 2 -128.5 50t-65.5 147q-171 -193 -379 -193q-86 0 -165 35.5t-139 99t-90.5 164t-17.5 219.5 q15 147 87.5 260t176 170.5t220.5 57.5q213 0 360 -205l14 139h95l-70 -663q-4 -101 31.5 -146t87.5 -45q95 0 182.5 117t106.5 303q23 217 -65.5 400t-264 289t-397.5 106q-162 0 -315 -59t-273 -162.5t-199.5 -254.5t-95.5 -325q-15 -171 34.5 -322.5t146.5 -258 t237 -168.5t301 -62q182 0 362 84l35 -84q-194 -90 -399 -90q-180 0 -338 69t-268.5 188.5t-167.5 288.5t-41 359zM666 530q-20 -186 83 -308t265 -122q98 0 175 44.5t161 127.5l53 469q-144 201 -336 201q-154 0 -268 -117t-133 -295z" />
<glyph unicode="A" d="M66 0l647 1434h98l651 -1434h-116l-154 344h-854l-152 -344h-120zM381 444h766l-385 865z" />
<glyph unicode="B" horiz-adv-x="1486" d="M271 0h1v1434q259 3 400 3q71 0 112 -1q214 -3 336.5 -91.5t122.5 -244.5q0 -126 -75 -215t-201 -111q185 -22 289 -121.5t104 -259.5q0 -181 -140.5 -288t-418.5 -107zM379 96q52 0 228 -1t216 -1q210 1 319 84.5t109 222.5q0 68 -26.5 123.5t-82 98.5t-150 67 t-222.5 25q-285 0 -391 -2v-617zM379 811h405q92 1 162.5 26t110.5 66q39 41 59 89q19 45 19 93q0 85 -48 143q-47 57 -119.5 83.5t-162.5 27.5h-426v-528z" />
<glyph unicode="C" horiz-adv-x="1486" d="M147 719q0 203 99.5 369t271 261t379.5 101q15 0 30 1q209 0 406 -93l-39 -92q-172 85 -357 85q-16 0 -32 -1q-134 -4 -253 -53t-206.5 -131t-138.5 -197.5t-51 -247.5q0 -137 54.5 -257t146.5 -202.5t216.5 -130t262.5 -47.5q200 0 375 100l41 -92q-196 -105 -414 -108 h-6q-158 0 -301 54q-146 55 -252.5 151.5t-169 234.5t-62.5 295z" />
<glyph unicode="D" horiz-adv-x="1607" d="M266 0v1434l287 2q154 -1 285.5 -24t247.5 -76.5t198 -134.5t129 -203.5t47 -276.5q0 -354 -235.5 -538.5t-659.5 -184.5q-254 0 -299 2zM373 98h200q371 2 574 157.5t203 463.5q0 137 -42.5 244.5t-114.5 176.5t-175 113.5t-216.5 63t-246.5 18.5h-182v-1237z" />
<glyph unicode="E" horiz-adv-x="1361" d="M266 0v1434h926v-101h-817v-557h629v-96h-629v-580h870v-100h-979z" />
<glyph unicode="F" horiz-adv-x="1298" d="M266 0v1434h938v-101h-829v-631h600v-98h-600v-604h-109z" />
<glyph unicode="G" horiz-adv-x="1615" d="M147 719q0 149 57 283.5t157 233t243 158.5t307 64h29q221 0 426 -102l-37 -94q-181 97 -383 97q-15 0 -31 -1q-184 -6 -335 -90.5t-237.5 -229t-86.5 -319.5v-5q0 -130 50 -247q52 -119 142 -206.5t220 -139t280 -51.5q222 0 408 112v434h-457v99h563v-592 q-238 -152 -514 -154h-6q-171 0 -318 58q-151 59 -254.5 160t-163 239t-59.5 293z" />
<glyph unicode="H" horiz-adv-x="1724" d="M266 0v1434h109v-689h975v689h108v-1434h-108v645h-975v-645h-109z" />
<glyph unicode="I" horiz-adv-x="638" d="M266 0v1434h107v-1434h-107z" />
<glyph unicode="J" horiz-adv-x="866" d="M35 78q235 3 366 150t131 440v766h107v-772q0 -338 -157.5 -511.5t-444.5 -173.5z" />
<glyph unicode="K" horiz-adv-x="1417" d="M266 0v1434h107v-938l829 938h129l-512 -580l604 -854h-133l-538 772l-379 -424v-348h-107z" />
<glyph unicode="L" horiz-adv-x="1245" d="M266 0v1434h109v-1334h854v-100h-963z" />
<glyph unicode="M" horiz-adv-x="2111" d="M266 0v1434h109l672 -910l690 910h108v-1434h-110v1264l-686 -910l-672 912l-2 -1266h-109z" />
<glyph unicode="N" horiz-adv-x="1751" d="M266 0v1434h111l999 -1250v1250h109v-1434h-92l-1018 1270v-1270h-109z" />
<glyph unicode="O" horiz-adv-x="1781" d="M147 713q0 216 97.5 386t266.5 262.5t380 92.5q159 0 297 -55t236 -152t154 -235.5t56 -298.5q0 -156 -52.5 -293t-147.5 -237t-235 -158t-306 -58q-217 0 -388 97t-264.5 267t-93.5 382zM258 713q0 -186 78.5 -332.5t223.5 -229.5t333 -83q144 0 264 50t200.5 137.5 t124.5 205t44 252.5q0 186 -80 332t-225 227.5t-330 81.5q-279 0 -456 -178t-177 -463z" />
<glyph unicode="P" horiz-adv-x="1421" d="M266 0v1434q147 2 436 2q186 0 327.5 -60.5t221 -176t82.5 -271.5v-8q1 -152 -75 -265q-78 -116 -212 -175.5t-307 -61.5l-364 -2v-416h-109zM375 516h354q233 1 365 113q131 110 131 286v5q-1 123 -66.5 218t-178 145.5t-253.5 51.5h-352v-819z" />
<glyph unicode="Q" horiz-adv-x="1796" d="M147 713q0 215 97.5 385t267 263t379.5 93q159 0 297 -55t236 -152.5t154 -236t56 -299.5q0 -195 -79 -355.5t-230 -263.5t-350 -121q41 -17 84 -45.5t78.5 -57t71.5 -56t74.5 -47t74.5 -25.5q18 -3 35 -3q42 0 79 21q53 29 87 86l69 -51q-43 -82 -113 -122 q-53 -30 -120 -30q-22 0 -45 3q-53 9 -106.5 36t-97.5 60t-86 65.5t-88 59.5t-89 35q-20 4 -40 4q-48 0 -95 -24q-66 -35 -109 -118l-70 54q60 122 174 164q-270 47 -433 248t-163 485zM258 713q0 -186 78.5 -333t224 -230.5t332.5 -83.5q144 0 264 50.5t200.5 138 t124.5 205t44 251.5q0 186 -80 333t-225 228.5t-330 81.5q-279 0 -456 -178t-177 -463z" />
<glyph unicode="R" horiz-adv-x="1480" d="M266 0v1434l434 2q275 0 445.5 -140.5t173.5 -371.5q1 -164 -83 -277.5t-224 -171.5l305 -475h-125l-285 440q-96 -22 -186 -22h-346v-418h-109zM375 518q94 -2 179.5 -2t160.5 2q79 1 151.5 17.5t135.5 50t110 80.5q46 48 72 114q26 64 26 138v6q-1 126 -69 220 t-181.5 142t-257.5 49q-117 2 -327 2v-819z" />
<glyph unicode="S" horiz-adv-x="1470" d="M176 150l43 90q114 -71 263 -120q140 -46 283 -46h17q193 2 311.5 86t118.5 223q0 34 -7.5 63.5t-20.5 54t-35.5 46t-46 38t-59 32t-67.5 27t-78.5 24.5t-84.5 22t-92 21q-66 14 -110.5 25t-99.5 28.5t-91 36t-73.5 45.5t-59.5 58.5t-36 74.5q-15 46 -15 98q0 91 40 163 q41 74 112.5 119.5t162.5 69t194 23.5q237 0 476 -117l-35 -94q-222 111 -441 111q-176 0 -288 -72q-111 -72 -111 -201q0 -53 24 -95q24 -40 50 -63.5t90.5 -46.5t100 -32t124.5 -28q13 -3 20 -4.5t18 -4t20 -4.5q70 -15 123.5 -29t110.5 -34t99 -42t80.5 -53t63 -67 t39 -83.5t14.5 -103.5q0 -193 -150.5 -304t-384.5 -114h-18q-164 0 -314 51q-158 54 -280 128z" />
<glyph unicode="T" horiz-adv-x="1271" d="M16 1333v101h1239v-101h-565v-1333h-106v1333h-568z" />
<glyph unicode="U" horiz-adv-x="1689" d="M227 621v813h107v-811q0 -258 140.5 -407.5t371.5 -149.5q230 0 370 149.5t140 407.5v811h106v-811q0 -155 -47 -280.5t-130.5 -208t-195.5 -127t-243 -44.5q-129 0 -241 43.5t-196.5 124.5t-133 207.5t-48.5 282.5z" />
<glyph unicode="V" horiz-adv-x="1441" d="M20 1434h117l588 -1303l582 1303h116l-645 -1434h-106z" />
<glyph unicode="W" horiz-adv-x="2142" d="M66 1434h110l414 -1284l434 1284h100l461 -1280l379 1280h109l-433 -1434h-104l-461 1278l-434 -1278h-104z" />
<glyph unicode="X" horiz-adv-x="1476" d="M119 0l549 743l-508 691h131l448 -611l451 611h131l-510 -693l547 -741h-129l-490 659l-489 -659h-131z" />
<glyph unicode="Y" d="M111 1434h131l522 -764l526 764h131l-600 -865v-569h-112l-2 567z" />
<glyph unicode="Z" horiz-adv-x="1441" d="M123 0v90l1042 1245h-999v99h1141v-95l-1039 -1239h1045v-100h-1190z" />
<glyph unicode="[" horiz-adv-x="647" d="M160 -297v1823h293v-74h-191v-1675h191l-2 -74h-291z" />
<glyph unicode="\" horiz-adv-x="843" d="M80 1452l78 16l508 -1736l-76 -17z" />
<glyph unicode="]" horiz-adv-x="647" d="M123 -223h190v1675h-190v74h295v-1823h-293z" />
<glyph unicode="^" horiz-adv-x="1267" d="M123 778l485 656h56l483 -656h-109l-401 553l-406 -553h-108z" />
<glyph unicode="_" horiz-adv-x="716" d="M37 0h643v-82h-643v82z" />
<glyph unicode="`" horiz-adv-x="1277" d="M723 1847l104 21l115 -228l-80 -36z" />
<glyph unicode="a" horiz-adv-x="1370" d="M125 563q0 123 41.5 227.5t111.5 174.5t163 109.5t196 39.5q135 0 244.5 -62t185.5 -165v209h100v-1096h-96l-2 180q-69 -85 -174.5 -140.5t-230.5 -55.5q-104 0 -200.5 40.5t-172 113.5t-121 183.5t-45.5 241.5zM223 559q0 -140 63 -251.5t165.5 -170.5t222.5 -59 q229 0 393 198v510q-180 238 -416 238q-181 0 -304.5 -131.5t-123.5 -333.5z" />
<glyph unicode="b" horiz-adv-x="1415" d="M225 0l2 1481h103l-2 -613q33 41 73 79t98 78.5t133.5 64.5t155.5 24q101 0 192 -38.5t160 -108t109.5 -174.5t40.5 -230q0 -134 -47 -245.5t-124 -183t-173 -111t-198 -39.5q-71 0 -137 19t-120 53t-90 63.5t-75 68.5l-2 -188h-99zM328 291q194 -213 405 -213 q89 0 171.5 35t145.5 96.5t100.5 153t37.5 198.5q0 198 -121 328.5t-299 130.5q-71 0 -139 -22.5t-123 -61.5t-98 -80.5t-80 -89.5v-475z" />
<glyph unicode="c" horiz-adv-x="1247" d="M125 551q0 133 49.5 243t132 181t188 109.5t220.5 39.5h9q215 0 394 -135l-49 -80q-152 123 -350 123q-136 0 -248.5 -60.5t-178 -171t-65.5 -249.5q0 -109 41 -199.5t109.5 -149.5t156 -91.5t181.5 -32.5q207 0 364 143l54 -74q-78 -70 -186.5 -115.5t-237.5 -45.5 q-87 0 -170.5 22.5t-158.5 69t-131.5 112t-89.5 159t-34 202.5z" />
<glyph unicode="d" horiz-adv-x="1415" d="M125 563q0 125 40.5 230t110 174.5t160 108t191.5 38.5q80 0 155.5 -24t133.5 -64.5t98 -78.5t73 -79v613h103v-1481h-98l-2 188q-199 -204 -422 -204q-102 0 -198.5 39.5t-173.5 111t-124 183t-47 245.5zM227 561q0 -107 38 -198.5t101.5 -153t146 -96.5t171.5 -35 q209 0 403 213v475q-37 48 -80 89.5t-98 80.5t-123 61.5t-139 22.5q-178 0 -299 -130.5t-121 -328.5z" />
<glyph unicode="e" horiz-adv-x="1347" d="M125 555q0 133 48 244t129 183t185 110q99 37 207 36h11q123 -1 230 -50t179 -130q72 -82 103 -196q17 -63 17 -130q0 -54 -11 -110h-994q7 -106 51 -190.5t113.5 -138t158.5 -81.5q86 -28 182 -28h7q143 1 248.5 53t173.5 125l56 -76q-47 -48 -106.5 -87.5t-160 -72.5 t-211.5 -34h-6q-120 0 -228 36q-110 38 -196 108.5t-136 181.5t-50 247zM229 600h897q3 26 3 52q0 87 -39 164q-51 100 -153.5 159.5t-231.5 60.5h-5q-120 0 -220 -48q-102 -50 -171 -151t-80 -237z" />
<glyph unicode="f" horiz-adv-x="806" d="M104 1004v92h172v63q0 84 21.5 151.5t56.5 111.5t82.5 73.5t96.5 42t102 12.5q121 0 244 -65l-33 -78q-96 57 -191 57h-10q-40 -1 -76 -11t-71.5 -33t-61 -56.5t-41.5 -85.5t-16 -117v-65h297v-92h-297v-1004h-103v1004h-172z" />
<glyph unicode="g" horiz-adv-x="1372" d="M125 563q0 126 40 230.5t108.5 174.5t160.5 108t197 38q141 0 252.5 -62.5t183.5 -150.5l4 195h98v-1069q0 -102 -30.5 -184.5t-80.5 -135t-117 -87.5t-136.5 -49.5t-142.5 -14.5q-220 0 -426 116l38 82q186 -106 379 -106q61 0 118 11.5t111.5 39.5t95 69.5t65 107 t24.5 147.5v163q-164 -186 -405 -186q-106 0 -202 37.5t-171 106.5t-119.5 177.5t-44.5 241.5zM227 561q0 -209 130 -337t319 -128q227 0 391 185v524q-78 97 -185 157t-231 60q-188 0 -306 -128.5t-118 -332.5z" />
<glyph unicode="h" horiz-adv-x="1415" d="M233 0v1487h103v-641q30 38 52.5 64.5t70 70.5t93 71t112 48.5t135.5 21.5q88 0 166.5 -31t140 -89.5t97.5 -151.5t36 -209v-641h-102v635q0 92 -29 167t-78.5 123.5t-113.5 74.5t-136 26q-62 0 -122 -20.5t-104.5 -49.5t-89.5 -72.5t-71.5 -75.5t-56.5 -73v-735h-103z " />
<glyph unicode="i" horiz-adv-x="561" d="M205 1415q0 31 22 52.5t54 21.5q31 0 53 -21.5t22 -52.5q0 -32 -23 -53t-52 -21q-30 0 -53 21.5t-23 52.5zM229 0v1096h103v-1096h-103z" />
<glyph unicode="j" horiz-adv-x="563" d="M-268 -408l35 84q87 -55 186 -55h10q48 2 93.5 18.5t87.5 50.5t67.5 96.5t26.5 145.5v1164h102v-1164q0 -106 -33.5 -187t-89 -126.5t-119 -67.5t-131.5 -22q-112 0 -235 63zM217 1415q0 28 21 49t51 21q31 0 52 -20.5t21 -49.5q0 -31 -22 -50t-51 -19t-50.5 19.5 t-21.5 49.5z" />
<glyph unicode="k" horiz-adv-x="1247" d="M233 0v1483h103v-1065l633 678h135l-391 -420l467 -676h-133l-406 602l-305 -328v-274h-103z" />
<glyph unicode="l" horiz-adv-x="571" d="M233 0v1483h103v-1483h-103z" />
<glyph unicode="m" horiz-adv-x="2123" d="M203 0v1096h100v-281q29 55 68.5 105.5t93.5 98t125 76.5t147 29q139 0 246 -88t129 -225q26 51 64.5 101t93.5 100t130 81t156 31q76 0 146 -27.5t125 -78.5t88 -132.5t33 -180.5v-705h-103v692q0 158 -89.5 247t-217.5 89q-75 0 -143.5 -31t-119.5 -81.5t-88 -105 t-61 -112.5v-698h-102v692q0 157 -90.5 246.5t-216.5 89.5q-68 0 -133 -28.5t-117 -77t-91.5 -101t-70.5 -110.5v-711h-102z" />
<glyph unicode="n" horiz-adv-x="1374" d="M203 0v1096h100l2 -254q205 280 459 280q193 0 313.5 -127t120.5 -350v-645h-102v639q0 181 -97.5 285t-255.5 104q-232 0 -438 -295v-733h-102z" />
<glyph unicode="o" horiz-adv-x="1378" d="M125 555q0 166 76.5 297t205 201.5t283.5 70.5q112 0 213.5 -39t179.5 -110t124 -180.5t46 -241.5q0 -136 -49 -246.5t-129.5 -179t-179.5 -105t-205 -36.5q-87 0 -169 23t-154 70.5t-126 114t-85 159.5t-31 202zM225 553q1 -113 40 -204.5t104.5 -149.5t147.5 -89 t173 -32h5q82 0 161 30q81 30 147.5 87.5t107 150.5t40.5 207q0 115 -40 208.5t-106 150.5t-147 87.5t-168 30.5q-93 0 -177 -33.5t-148.5 -93.5t-102 -151t-37.5 -199z" />
<glyph unicode="p" horiz-adv-x="1388" d="M203 -379l2 1475h98l2 -205q79 93 195 158t252 65q103 0 195 -37t163 -105t112.5 -174t41.5 -235q0 -136 -46 -248t-122.5 -183t-171.5 -109.5t-197 -38.5q-124 0 -233.5 52.5t-190.5 133.5v-549h-100zM305 266q79 -81 185.5 -134.5t224.5 -53.5q187 0 316.5 133 t129.5 348q0 209 -123.5 335t-304.5 126q-124 0 -233.5 -62t-194.5 -167v-525z" />
<glyph unicode="q" horiz-adv-x="1388" d="M125 553q0 133 44.5 241.5t119.5 177t171 105.5t202 37q98 0 186.5 -36.5t143 -83t91.5 -101.5l4 203h99v-1475h-101v549q-186 -186 -426 -186q-108 0 -204 37.5t-170 108t-117 180t-43 243.5zM227 551q0 -106 35 -195.5t95 -150t142 -94t175 -33.5q225 0 409 184v535 q-70 100 -174 161.5t-233 61.5q-90 0 -171 -32.5t-143 -91t-98.5 -148t-36.5 -197.5z" />
<glyph unicode="r" horiz-adv-x="808" d="M203 0v1096h96l2 -219q66 121 157.5 181t188.5 60q64 0 127 -26l-29 -91q-50 23 -104 23q-187 0 -336 -262v-762h-102z" />
<glyph unicode="s" horiz-adv-x="1204" d="M133 125l43 84q75 -56 195 -99q117 -42 252 -42h6q92 0 167 22q74 22 122 74q47 49 47 121v6q-1 26 -8 48t-16.5 38.5t-30 32t-36 25.5t-47.5 21t-51.5 17t-60.5 14.5t-63 12.5t-70 12q-56 10 -86 16t-79.5 18.5t-77 25.5t-62.5 35.5t-53.5 48.5t-32.5 64q-15 40 -15 88 q0 77 32 138q34 63 93 102t134 59t161 21h8q197 0 385 -94l-28 -86q-183 90 -356 90h-7q-136 -2 -228 -62q-91 -59 -91 -167q-1 -45 19 -78q18 -32 48 -52t76 -34.5t93 -23t108 -18.5q15 -2 22 -3q51 -8 88.5 -15.5t83.5 -20.5t79 -28.5t66.5 -38.5t54.5 -51.5t34.5 -67 t13.5 -89.5q1 -77 -33 -139t-95.5 -99.5t-138.5 -57t-165 -20.5q-150 0 -278.5 45.5t-221.5 106.5z" />
<glyph unicode="t" horiz-adv-x="983" d="M68 1004v92h245v338h103v-338h399v-92h-399v-660q0 -132 72 -201t176 -71h6q112 0 219 73l37 -86q-137 -79 -265 -79h-6q-148 2 -245 97t-97 263v664h-245z" />
<glyph unicode="u" horiz-adv-x="1363" d="M190 412v684h103v-680q0 -167 94 -263t238 -96q73 0 142.5 24.5t124 65t96.5 85.5t73 94v770h102v-1096h-98l-2 209q-23 -29 -51 -57.5t-73.5 -64t-93.5 -62t-112.5 -44.5t-130.5 -18q-84 0 -158 29t-131 83.5t-90 141.5t-33 195z" />
<glyph unicode="v" horiz-adv-x="1191" d="M51 1096h113l432 -967l430 967h113l-498 -1096h-88z" />
<glyph unicode="w" horiz-adv-x="1830" d="M68 1096h106l324 -946l370 946h97l370 -955l322 955h106l-372 -1096h-107l-369 950l-368 -950h-101z" />
<glyph unicode="x" horiz-adv-x="1265" d="M45 0l508 590l-434 506h135l371 -432l370 432h131l-434 -508l506 -588h-135l-445 514l-442 -514h-131z" />
<glyph unicode="y" horiz-adv-x="1294" d="M47 1096h119l502 -1002l489 1002h119l-846 -1712h-119l299 600z" />
<glyph unicode="z" horiz-adv-x="1177" d="M115 0l2 61l784 943h-747v92h886v-72l-776 -932h813v-92h-962z" />
<glyph unicode="{" horiz-adv-x="600" d="M74 686q180 27 180 182v539q0 84 47 125t119 41h59v-76q-60 2 -90.5 -23.5t-30.5 -84.5v-541q0 -152 -174 -203v-6q174 -51 174 -203v-538q0 -112 121 -109v-76h-59q-72 0 -119 42t-47 126v535q0 150 -178 182z" />
<glyph unicode="|" horiz-adv-x="745" d="M322 -184v1720h100v-1720h-100z" />
<glyph unicode="}" horiz-adv-x="600" d="M47 -211q123 -3 123 109v538q0 152 174 203v6q-174 51 -174 203v541q0 111 -123 108v76h62q72 0 118.5 -41t46.5 -125v-539q0 -154 179 -182l-2 -88q-177 -33 -177 -182v-535q0 -84 -46.5 -126t-118.5 -42h-62v76z" />
<glyph unicode="~" horiz-adv-x="1378" d="M133 725q56 113 140 179.5t194 66.5q53 -1 102.5 -24.5t89 -56.5t78.5 -65.5t86.5 -55t98.5 -21.5q83 1 152.5 62t99.5 134l71 -33q-29 -56 -55 -94t-64 -75.5t-87.5 -57t-110.5 -20.5q-60 -2 -115 19.5t-97 54.5t-81 66t-82.5 56.5t-85.5 24.5q-86 3 -153.5 -47.5 t-112.5 -145.5z" />
<glyph unicode="&#xa1;" horiz-adv-x="684" d="M266 1188q0 30 23 52t51 22q29 0 51.5 -21.5t22.5 -52.5t-21.5 -53.5t-52.5 -22.5t-52.5 22.5t-21.5 53.5zM291 -186l10 1147h90l15 -1147h-115z" />
<glyph unicode="&#xa2;" horiz-adv-x="1146" d="M125 690q-1 118 41.5 215.5t115 161t166 98t197.5 35.5h29l24 141l78 -10l-22 -139q137 -22 266 -105l-43 -81q-154 100 -328 100q-182 0 -306 -118t-124 -300q0 -95 37 -173t98.5 -127.5t138.5 -76t160 -26.5q184 0 328 118l49 -77q-166 -136 -381 -136l-39 3l-22 -142 l-80 15l22 137q-83 17 -154.5 55t-128.5 97t-89.5 145.5t-32.5 189.5z" />
<glyph unicode="&#xa3;" horiz-adv-x="1345" d="M37 66l39 88q92 -59 192 -56q49 1 91 17t78 50t56.5 94t20.5 140v314h-195v96h195v256q0 107 31 187t83 124.5t112.5 66t127.5 21.5q136 0 252 -63l-33 -92q-45 28 -103 44t-110 15q-48 -2 -90.5 -18.5t-80 -51t-59 -96.5t-21.5 -145v-248h229v-96h-229v-312 q0 -225 -129 -301h735v-100h-957q-113 0 -235 66z" />
<glyph unicode="&#xa4;" horiz-adv-x="1155" d="M100 1126l52 56l159 -160q96 74 224 74t221 -74l159 160l54 -56l-158 -157q82 -98 82 -230q0 -122 -76 -221l139 -137l-51 -59l-143 141q-96 -80 -227 -80q-133 0 -230 78l-141 -139l-53 59l139 135q-76 99 -76 223q0 132 82 230zM246 739q0 -120 84.5 -203t204.5 -83 q119 0 202.5 83t83.5 203t-83.5 203.5t-202.5 83.5t-204 -84t-85 -203z" />
<glyph unicode="&#xa5;" d="M111 1434h131l522 -764l526 764h131l-571 -824h364v-73h-393v-7h393v-73h-393v-457h-112l-2 457h-408v73h408v7h-406v73h377z" />
<glyph unicode="&#xa6;" horiz-adv-x="745" d="M322 -184v764h100v-764h-100zM322 739v797h100v-797h-100z" />
<glyph unicode="&#xa7;" horiz-adv-x="1167" d="M176 61l41 82q190 -117 395 -114q129 2 218 52t88 138q0 31 -13 56t-38.5 44t-54 33t-72 26t-78.5 19.5t-87 16.5q-67 11 -111.5 21t-99 30.5t-86.5 46.5t-55 69t-24 99q-1 88 50 153t148 99q-97 31 -151.5 85t-57.5 148q-3 128 108 209t296 82q179 0 350 -76l-29 -88 q-167 75 -321 72q-134 -3 -217 -56t-82 -143q1 -48 25 -81t83.5 -54t96.5 -29.5t125 -22.5q3 -1 4 -1q62 -10 112 -22t102 -34t87.5 -50t59 -70.5t24.5 -95.5q1 -89 -58.5 -149.5t-158.5 -92.5q222 -69 225 -242q1 -134 -119.5 -208t-290.5 -76q-229 -3 -434 124zM301 686 q1 -37 18 -66t41.5 -46.5t68 -32t79 -21.5t92.5 -16q79 2 147.5 23t115.5 66t46 105q-1 36 -19 64.5t-46 48t-73 35.5t-86.5 25.5t-98.5 19.5q-128 -5 -207 -60.5t-78 -144.5z" />
<glyph unicode="&#xa8;" horiz-adv-x="1263" d="M748 1712q0 28 19 47t48 19q27 0 46.5 -19.5t19.5 -46.5q0 -28 -20.5 -46.5t-45.5 -18.5q-27 0 -47 18.5t-20 46.5zM1018 1712q0 28 18.5 47t46.5 19t47 -19t19 -47t-20 -46.5t-46 -18.5t-45.5 18.5t-19.5 46.5z" />
<glyph unicode="&#xa9;" horiz-adv-x="1605" d="M72 721q0 197 98.5 364.5t267.5 265t367 97.5q197 0 365.5 -98t267 -265.5t98.5 -363.5t-98.5 -365.5t-267 -269.5t-365.5 -100q-148 0 -284 58.5t-234 157.5t-156.5 235t-58.5 284zM145 721q0 -134 53 -257t142 -211.5t210.5 -141t252.5 -52.5q132 0 253.5 53t210.5 142 t142 212t53 257q0 175 -89 325t-240.5 238t-327.5 88q-134 0 -256.5 -52t-211 -140t-140.5 -208.5t-52 -252.5zM379 713q-1 190 123 305t295 115q149 2 305 -101l-39 -61q-125 90 -264 90q-148 0 -247 -97.5t-99 -250.5q0 -105 51.5 -184t130 -116.5t168.5 -37.5 q80 0 150.5 28.5t117.5 73.5l41 -59q-133 -119 -309 -119q-80 0 -155 27.5t-135 78t-96.5 130.5t-37.5 178z" />
<glyph unicode="&#xaa;" horiz-adv-x="980" d="M104 967q0 79 48 135t117 80t149 24q116 0 274 -92q4 130 -60 204.5t-181 74.5q-119 0 -228 -64l-30 62q135 71 268 71q143 0 228 -93t85 -243v-393h-80v103q-153 -119 -297 -119q-128 0 -210.5 69t-82.5 181zM152 496v82h653v-82h-653zM184 969q0 -86 65.5 -135.5 t160.5 -49.5q71 0 145 32.5t135 80.5v154q-140 94 -264 94q-100 0 -171 -46.5t-71 -129.5z" />
<glyph unicode="&#xab;" horiz-adv-x="1226" d="M106 557l478 539h116l-477 -539l479 -557h-116zM541 557l477 539h117l-478 -539l480 -557h-117z" />
<glyph unicode="&#xac;" horiz-adv-x="1482" d="M133 788v74h1215v-680h-80v606h-1135z" />
<glyph unicode="&#xad;" horiz-adv-x="819" d="M88 666v90h643v-90h-643z" />
<glyph unicode="&#xae;" horiz-adv-x="1601" d="M72 721q0 148 58 283t156 232t233 154.5t284 57.5q197 0 365 -97t266 -264.5t98 -365.5t-98 -367.5t-266 -268.5t-365 -99q-148 0 -283.5 58.5t-233.5 157.5t-156 235t-58 284zM143 721q0 -134 53 -257t142 -211.5t210.5 -141t252.5 -52.5q132 0 253.5 53t210.5 142 t142 212t53 257q0 176 -89 326t-240.5 237.5t-327.5 87.5q-134 0 -256.5 -52t-211 -140t-140.5 -208.5t-52 -252.5zM518 262v897q156 6 262 6q164 0 274 -89t111 -234q0 -98 -51 -172.5t-139 -110.5l160 -297l-82 -2l-146 272q-66 -14 -315 -14v-256h-74zM590 586 q90 2 190 2q144 -3 230 67.5t86 182.5q-1 117 -91 188.5t-221 71.5q-118 0 -194 -2v-510z" />
<glyph unicode="&#xaf;" horiz-adv-x="1259" d="M649 1620v80h676v-80h-676z" />
<glyph unicode="&#xb0;" horiz-adv-x="839" d="M119 1331q0 128 89 216.5t218 88.5q130 0 218.5 -89.5t88.5 -215.5q0 -129 -88 -218t-219 -89q-128 0 -217.5 88.5t-89.5 218.5zM190 1329q0 -99 68.5 -167t169.5 -68q100 0 168 68t68 167t-68.5 167.5t-167.5 68.5q-101 0 -169.5 -68.5t-68.5 -167.5z" />
<glyph unicode="&#xb1;" horiz-adv-x="1185" d="M233 262v82h719v-82h-719zM246 889v82h303v346h88v-346h303v-82h-303v-346h-88v346h-303z" />
<glyph unicode="&#xb2;" horiz-adv-x="833" d="M131 651v51l315 263q72 60 105 105.5t33 105.5q0 65 -46 108t-110 43q-71 0 -125 -47t-67 -129l-72 18q21 106 96.5 166t171.5 60q94 0 163 -62.5t69 -156.5q0 -75 -40.5 -134t-113.5 -116l-252 -205h426v-70h-553z" />
<glyph unicode="&#xb3;" horiz-adv-x="851" d="M123 768l35 57q122 -86 256 -86q89 0 148 40.5t59 105.5q0 62 -58 105.5t-135 43.5h-133v62h133q61 0 109.5 40t48.5 93q0 57 -48 95t-128 38q-104 0 -209 -68l-31 60q116 73 242 73q106 0 177 -53t70 -139q0 -63 -32 -101.5t-90 -62.5q67 -20 112 -70.5t45 -117.5 q0 -98 -82 -155.5t-196 -57.5q-154 0 -293 98z" />
<glyph unicode="&#xb4;" horiz-adv-x="1482" d="M848 1640l115 228l104 -21l-139 -243z" />
<glyph unicode="&#xb5;" horiz-adv-x="1316" d="M190 -410v1508h97v-2h6v-680q0 -167 94 -263t238 -96q73 0 142.5 24.5t124 65t96.5 85.5t73 94v770l102 -2v-1094h-98l-2 209q-30 -38 -69 -75t-97.5 -78.5t-136 -67t-158.5 -25.5q-95 0 -177 36t-138 105v-514h-97z" />
<glyph unicode="&#xb6;" horiz-adv-x="1662" d="M111 1020q2 134 48.5 235t130 162t193 91t246.5 30h219h447v-1718h-90v1630h-140v-1630h-104v692h-352q-296 3 -448 135.5t-150 372.5z" />
<glyph unicode="&#xb7;" horiz-adv-x="434" d="M141 752q0 32 22 53.5t54 21.5q31 0 53.5 -21.5t22.5 -53.5t-23.5 -54t-52.5 -22q-31 0 -53.5 22t-22.5 54z" />
<glyph unicode="&#xb8;" horiz-adv-x="1343" d="M483 -215l127 215h72l-121 -242z" />
<glyph unicode="&#xb9;" horiz-adv-x="600" d="M137 1343l111 89h74v-760h-74v676l-70 -62z" />
<glyph unicode="&#xba;" horiz-adv-x="1019" d="M125 1087q0 168 110.5 274.5t274.5 106.5q103 0 189.5 -44.5t141 -133t54.5 -205.5q0 -92 -33 -166t-88.5 -120t-123 -70t-140.5 -24q-101 0 -187 43.5t-142 132.5t-56 206zM135 496v82h748v-82h-748zM203 1090q0 -139 91.5 -224.5t215.5 -87.5q80 -1 149 34.5t112.5 107 t43.5 165.5q0 142 -91 227t-214 85q-127 0 -217 -86t-90 -221z" />
<glyph unicode="&#xbb;" horiz-adv-x="1263" d="M41 0l479 557l-475 539h115l477 -539l-479 -557h-117zM475 0l479 557l-477 539h117l477 -539l-479 -557h-117z" />
<glyph unicode="&#xbc;" horiz-adv-x="1847" d="M266 1343l113 89h74v-760h-76v676l-70 -62zM315 0l932 1434h101l-934 -1434h-99zM965 172v55l424 531h73v-520h117v-66h-117v-172h-73v172h-424zM1055 238h334v413z" />
<glyph unicode="&#xbd;" horiz-adv-x="1914" d="M303 0l932 1434h100l-934 -1434h-98zM309 1343l113 89h74v-760h-76v676l-70 -62zM1096 0v51l315 262q47 40 74 68t45 65t18 78q0 65 -45.5 108.5t-109.5 43.5q-72 0 -126 -47t-67 -129l-72 18q21 106 96.5 165.5t172.5 59.5q93 0 162 -62.5t69 -156.5q0 -75 -40 -134 t-113 -116l-252 -204h426v-70h-553z" />
<glyph unicode="&#xbe;" horiz-adv-x="2017" d="M266 768l37 57q122 -86 254 -86q89 0 148 40.5t59 105.5q0 62 -57.5 105.5t-133.5 43.5h-133v62h131q62 0 111 40t49 93q0 57 -48.5 95t-129.5 38q-100 0 -209 -68l-31 60q116 73 244 73q104 0 175.5 -53t70.5 -139q0 -63 -32 -101.5t-91 -62.5q68 -20 113 -71t45 -117 q0 -98 -82.5 -155.5t-196.5 -57.5q-150 0 -293 98zM539 0l931 1434h101l-932 -1434h-100zM1108 172v55l424 531h74v-520h116v-66h-116v-172h-74v172h-424zM1196 238h336v413z" />
<glyph unicode="&#xbf;" horiz-adv-x="1409" d="M176 170q0 81 25.5 141.5t66 99.5t90 74t99 74.5t91 89t68 131.5t27.5 189l107 2q0 -117 -26 -208.5t-67 -148t-90.5 -101.5t-99.5 -79t-91 -69t-67 -84t-26 -111q0 -133 108 -209.5t254 -58.5q248 30 342 291l90 -46q-53 -148 -160 -237.5t-253 -106.5q-129 -15 -240 25 t-179.5 130.5t-68.5 211.5zM623 1194q0 34 22.5 55t50.5 21q31 0 53.5 -21.5t22.5 -54.5q0 -31 -22 -52.5t-54 -21.5q-31 0 -52 21.5t-21 52.5z" />
<glyph unicode="&#xc0;" d="M66 0l647 1434h98l651 -1434h-116l-154 344h-854l-152 -344h-120zM381 444h766l-385 865zM655 1847l105 21l114 -228l-79 -36z" />
<glyph unicode="&#xc1;" d="M66 0l647 1434h98l651 -1434h-116l-154 344h-854l-152 -344h-120zM381 444h766l-385 865zM700 1640l115 228l105 -21l-140 -243z" />
<glyph unicode="&#xc2;" d="M66 0l647 1434h98l651 -1434h-116l-154 344h-854l-152 -344h-120zM381 444h766l-385 865zM553 1645l170 217h84l170 -217l-66 -43l-145 198l-150 -201z" />
<glyph unicode="&#xc3;" d="M66 0l647 1434h98l651 -1434h-116l-154 344h-854l-152 -344h-120zM381 444h766l-385 865zM438 1669q16 59 65.5 98.5t121.5 38.5q43 -1 89 -20t79 -40.5t73.5 -39.5t75.5 -18q77 0 115 90l63 -27q-20 -61 -65 -99t-109 -38q-54 0 -112 28.5t-113 57.5t-98 31 q-44 1 -75.5 -24.5t-45.5 -68.5z" />
<glyph unicode="&#xc4;" d="M66 0l647 1434h98l651 -1434h-116l-154 344h-854l-152 -344h-120zM381 444h766l-385 865zM569 1712q0 28 19.5 47t48.5 19q27 0 46 -19t19 -47t-20 -46.5t-45 -18.5q-27 0 -47.5 18.5t-20.5 46.5zM840 1712q0 28 18.5 47t46.5 19t47 -19t19 -47t-20 -46.5t-46 -18.5 t-45.5 18.5t-19.5 46.5z" />
<glyph unicode="&#xc5;" d="M66 0l647 1434h98l651 -1434h-116l-154 344h-854l-152 -344h-120zM381 444h766l-385 865zM524 1776q0 98 69.5 163.5t170.5 65.5t171.5 -66t70.5 -163q0 -99 -70.5 -164.5t-171.5 -65.5t-170.5 65.5t-69.5 164.5zM594 1776q0 -69 50.5 -117.5t119.5 -48.5t119.5 48.5 t50.5 117.5t-50.5 117.5t-119.5 48.5t-119.5 -48.5t-50.5 -117.5z" />
<glyph unicode="&#xc6;" horiz-adv-x="2011" d="M74 0l786 1434h981v-101h-817v-557h629v-96h-629v-580h870v-100h-976v635h-381l-342 -635h-121zM590 733h325v629l-41 -102z" />
<glyph unicode="&#xc7;" horiz-adv-x="1486" d="M147 719q0 203 99.5 369t271 261t379.5 101q225 7 436 -92l-39 -92q-187 92 -389 84q-134 -4 -253 -53t-206.5 -131t-138.5 -197.5t-51 -247.5q0 -137 54.5 -257t146.5 -202.5t216.5 -130t262.5 -47.5q200 0 375 100l41 -92q-196 -105 -414 -108q-161 -1 -307 54 t-252.5 151.5t-169 234.5t-62.5 295zM748 -236l126 216h72l-121 -242z" />
<glyph unicode="&#xc8;" horiz-adv-x="1361" d="M266 0v1434h926v-101h-817v-557h629v-96h-629v-580h870v-100h-979zM520 1808l105 21l114 -227l-80 -37z" />
<glyph unicode="&#xc9;" horiz-adv-x="1361" d="M266 0v1434h926v-101h-817v-557h629v-96h-629v-580h870v-100h-979zM604 1599l115 228l102 -21l-137 -243z" />
<glyph unicode="&#xca;" horiz-adv-x="1361" d="M266 0v1434h926v-101h-817v-557h629v-96h-629v-580h870v-100h-979zM530 1622l170 217h84l170 -217l-63 -43l-148 201l-149 -201z" />
<glyph unicode="&#xcb;" horiz-adv-x="1361" d="M266 0v1434h926v-101h-817v-557h629v-96h-629v-580h870v-100h-979zM537 1655q0 28 18.5 46.5t46.5 18.5t47 -18.5t19 -46.5q0 -30 -20 -49t-46 -19t-45.5 19.5t-19.5 48.5zM805 1655q0 28 19 46.5t48 18.5q27 0 46.5 -19t19.5 -46q0 -29 -20.5 -48.5t-45.5 -19.5 q-27 0 -47 19.5t-20 48.5z" />
<glyph unicode="&#xcc;" horiz-adv-x="638" d="M156 1808l104 21l115 -227l-80 -35zM266 0v1434h107v-1434h-107z" />
<glyph unicode="&#xcd;" horiz-adv-x="638" d="M217 1589l115 228l104 -21l-139 -242zM266 0v1434h107v-1434h-107z" />
<glyph unicode="&#xce;" horiz-adv-x="638" d="M111 1628l170 219h84l167 -219l-63 -43l-147 201l-148 -201zM266 0v1434h107v-1434h-107z" />
<glyph unicode="&#xcf;" horiz-adv-x="638" d="M117 1661q0 28 18.5 46.5t46.5 18.5t47 -18.5t19 -46.5t-20 -47t-46 -19q-25 0 -45 19.5t-20 46.5zM266 0v1434h107v-1434h-107zM385 1661q0 28 19.5 46.5t48.5 18.5q27 0 46 -19t19 -46q0 -28 -20 -47t-45 -19q-27 0 -47.5 19.5t-20.5 46.5z" />
<glyph unicode="&#xd0;" horiz-adv-x="1617" d="M74 692v78h205v664l286 2q154 -1 285 -24t247 -76.5t197.5 -134.5t128.5 -203.5t47 -276.5q0 -354 -234.5 -538.5t-660.5 -184.5q-251 0 -296 2v692h-205zM385 98h199q372 2 575 157t203 464q0 137 -42.5 244.5t-114.5 176.5t-175 113.5t-216.5 63t-246.5 18.5h-182v-565 h352v-78h-352v-594z" />
<glyph unicode="&#xd1;" horiz-adv-x="1751" d="M266 0v1434h111l999 -1250v1250h109v-1434h-92l-1018 1270v-1270h-109zM567 1669q16 59 65 98.5t120 38.5q44 -1 90.5 -20t79 -40.5t73 -39.5t74.5 -18q79 0 117 90l61 -27q-18 -61 -64 -99t-110 -38q-54 0 -112 28.5t-113 57.5t-98 31q-43 1 -74 -24.5t-45 -68.5z" />
<glyph unicode="&#xd2;" horiz-adv-x="1781" d="M147 713q0 216 97.5 386t266.5 262.5t380 92.5q159 0 297 -55t236 -152t154 -235.5t56 -298.5q0 -156 -52.5 -293t-147.5 -237t-235 -158t-306 -58q-217 0 -388 97t-264.5 267t-93.5 382zM258 713q0 -186 78.5 -332.5t223.5 -229.5t333 -83q144 0 264 50t200.5 137.5 t124.5 205t44 252.5q0 186 -80 332t-225 227.5t-330 81.5q-279 0 -456 -178t-177 -463zM731 1847l105 21l114 -228l-80 -36z" />
<glyph unicode="&#xd3;" horiz-adv-x="1781" d="M147 713q0 216 97.5 386t266.5 262.5t380 92.5q159 0 297 -55t236 -152t154 -235.5t56 -298.5q0 -156 -52.5 -293t-147.5 -237t-235 -158t-306 -58q-217 0 -388 97t-264.5 267t-93.5 382zM258 713q0 -186 78.5 -332.5t223.5 -229.5t333 -83q144 0 264 50t200.5 137.5 t124.5 205t44 252.5q0 186 -80 332t-225 227.5t-330 81.5q-279 0 -456 -178t-177 -463zM766 1604l115 227l102 -21l-137 -241z" />
<glyph unicode="&#xd4;" horiz-adv-x="1781" d="M147 713q0 216 97.5 386t266.5 262.5t380 92.5q159 0 297 -55t236 -152t154 -235.5t56 -298.5q0 -156 -52.5 -293t-147.5 -237t-235 -158t-306 -58q-217 0 -388 97t-264.5 267t-93.5 382zM258 713q0 -186 78.5 -332.5t223.5 -229.5t333 -83q144 0 264 50t200.5 137.5 t124.5 205t44 252.5q0 186 -80 332t-225 227.5t-330 81.5q-279 0 -456 -178t-177 -463zM674 1628l170 219h84l168 -219l-64 -43l-147 201l-148 -201z" />
<glyph unicode="&#xd5;" horiz-adv-x="1781" d="M147 713q0 216 97.5 386t266.5 262.5t380 92.5q159 0 297 -55t236 -152t154 -235.5t56 -298.5q0 -156 -52.5 -293t-147.5 -237t-235 -158t-306 -58q-217 0 -388 97t-264.5 267t-93.5 382zM258 713q0 -186 78.5 -332.5t223.5 -229.5t333 -83q144 0 264 50t200.5 137.5 t124.5 205t44 252.5q0 186 -80 332t-225 227.5t-330 81.5q-279 0 -456 -178t-177 -463zM551 1669q16 59 64.5 98.5t119.5 38.5q55 -2 113.5 -31.5t110.5 -58t94 -28.5q78 0 116 90l64 -27q-20 -61 -65 -99t-109 -38q-43 0 -89.5 17.5t-80.5 39t-76.5 40.5t-77.5 20 q-44 1 -75.5 -24.5t-45.5 -68.5z" />
<glyph unicode="&#xd6;" horiz-adv-x="1781" d="M147 713q0 216 97.5 386t266.5 262.5t380 92.5q159 0 297 -55t236 -152t154 -235.5t56 -298.5q0 -156 -52.5 -293t-147.5 -237t-235 -158t-306 -58q-217 0 -388 97t-264.5 267t-93.5 382zM258 713q0 -186 78.5 -332.5t223.5 -229.5t333 -83q144 0 264 50t200.5 137.5 t124.5 205t44 252.5q0 186 -80 332t-225 227.5t-330 81.5q-279 0 -456 -178t-177 -463zM684 1694q0 28 19.5 46.5t48.5 18.5q27 0 46 -19t19 -46q0 -28 -20 -47t-45 -19q-27 0 -47.5 19.5t-20.5 46.5zM954 1694q0 28 19 46.5t47 18.5t47.5 -18.5t19.5 -46.5t-20.5 -47 t-46.5 -19q-25 0 -45.5 19.5t-20.5 46.5z" />
<glyph unicode="&#xd7;" horiz-adv-x="1572" d="M227 55l494 500l-494 500l64 65l495 -502l496 502l64 -65l-494 -500l494 -500l-64 -67l-496 501l-495 -501z" />
<glyph unicode="&#xd8;" horiz-adv-x="1808" d="M147 715q0 215 100 389t273.5 271.5t386.5 97.5q154 0 295 -58l86 156l72 -37l-86 -152q178 -95 282.5 -271.5t104.5 -395.5q0 -211 -93 -384.5t-266.5 -276.5t-394.5 -103q-210 0 -385 96l-84 -147l-69 39l86 151q-144 104 -226 267.5t-82 357.5zM258 715 q0 -164 65.5 -302.5t182.5 -228.5l643 1141q-115 45 -242 45q-184 0 -332.5 -84t-232.5 -234t-84 -337zM573 139q150 -86 334 -86q143 0 265 53t204.5 143t129 211t46.5 255q0 188 -88 340t-241 235z" />
<glyph unicode="&#xd9;" horiz-adv-x="1689" d="M227 621v813h107v-811q0 -258 140.5 -407.5t371.5 -149.5q230 0 370 149.5t140 407.5v811h106v-811q0 -155 -47 -280.5t-130.5 -208t-195.5 -127t-243 -44.5q-129 0 -241 43.5t-196.5 124.5t-133 207.5t-48.5 282.5zM657 1796l105 21l115 -228l-80 -35z" />
<glyph unicode="&#xda;" horiz-adv-x="1689" d="M227 621v813h107v-811q0 -258 140.5 -407.5t371.5 -149.5q230 0 370 149.5t140 407.5v811h106v-811q0 -155 -47 -280.5t-130.5 -208t-195.5 -127t-243 -44.5q-129 0 -241 43.5t-196.5 124.5t-133 207.5t-48.5 282.5zM723 1597l115 228l104 -21l-139 -243z" />
<glyph unicode="&#xdb;" horiz-adv-x="1689" d="M227 621v813h107v-811q0 -258 140.5 -407.5t371.5 -149.5q230 0 370 149.5t140 407.5v811h106v-811q0 -155 -47 -280.5t-130.5 -208t-195.5 -127t-243 -44.5q-129 0 -241 43.5t-196.5 124.5t-133 207.5t-48.5 282.5zM608 1614l170 217h84l170 -217l-63 -43l-148 201 l-149 -201z" />
<glyph unicode="&#xdc;" horiz-adv-x="1689" d="M227 621v813h107v-811q0 -258 140.5 -407.5t371.5 -149.5q230 0 370 149.5t140 407.5v811h106v-811q0 -155 -47 -280.5t-130.5 -208t-195.5 -127t-243 -44.5q-129 0 -241 43.5t-196.5 124.5t-133 207.5t-48.5 282.5zM616 1653q0 28 19 46.5t47 18.5t48 -19t20 -46 q0 -28 -21 -47t-47 -19t-46 19t-20 47zM885 1653q0 28 19 46.5t48 18.5q27 0 46.5 -19t19.5 -46q0 -28 -20.5 -47t-45.5 -19q-27 0 -47 19t-20 47z" />
<glyph unicode="&#xdd;" d="M111 1434h131l522 -764l526 764h131l-600 -865v-569h-112l-2 567zM700 1640l115 228l105 -21l-140 -243z" />
<glyph unicode="&#xde;" horiz-adv-x="1402" d="M266 0v1434h107v-179h344q171 -1 304.5 -58t212.5 -170t81 -267q3 -233 -162.5 -377.5t-423.5 -146.5q-181 -3 -356 -3v-233h-107zM373 332h346q222 0 354.5 120t130.5 302q0 123 -64 215t-172 139t-245 47h-350v-823z" />
<glyph unicode="&#xdf;" horiz-adv-x="1435" d="M227 0v1126q0 77 22 141t58 106t83.5 70.5t97 41t100.5 12.5q172 0 298 -93.5t126 -240.5q0 -65 -32 -112t-77.5 -73.5t-91 -49t-77.5 -52t-32 -67.5t17.5 -66t53.5 -46t74 -28.5t97 -21.5q107 -17 184 -41t142 -62.5t98 -97t33 -137.5q1 -83 -34.5 -148.5t-95 -105 t-131.5 -59.5t-151 -21q-227 -3 -444 123l37 86q194 -119 409 -116q56 1 109 15t99.5 41t74 74t26.5 107q0 42 -14.5 75.5t-45 58t-62 42t-84.5 32.5t-92 23.5t-103 20.5q-65 13 -111 28t-92 42.5t-70 72.5t-24 107q0 51 23 90.5t57 62.5t74.5 46.5t74.5 43t57 52t23 72.5 q0 97 -92.5 164t-220.5 67q-48 0 -93 -15t-85.5 -46.5t-65 -88t-24.5 -131.5v-1124h-103z" />
<glyph unicode="&#xe0;" horiz-adv-x="1370" d="M125 563q0 123 41.5 227.5t111.5 174.5t163 109.5t196 39.5q135 0 244.5 -62t185.5 -165v209h100v-1096h-96l-2 180q-69 -85 -174.5 -140.5t-230.5 -55.5q-104 0 -200.5 40.5t-172 113.5t-121 183.5t-45.5 241.5zM223 559q0 -140 63 -251.5t165.5 -170.5t222.5 -59 q229 0 393 198v510q-180 238 -416 238q-181 0 -304.5 -131.5t-123.5 -333.5zM637 1548l104 21l115 -228l-80 -34z" />
<glyph unicode="&#xe1;" horiz-adv-x="1370" d="M125 563q0 123 41.5 227.5t111.5 174.5t163 109.5t196 39.5q135 0 244.5 -62t185.5 -165v209h100v-1096h-96l-2 180q-69 -85 -174.5 -140.5t-230.5 -55.5q-104 0 -200.5 40.5t-172 113.5t-121 183.5t-45.5 241.5zM223 559q0 -140 63 -251.5t165.5 -170.5t222.5 -59 q229 0 393 198v510q-180 238 -416 238q-181 0 -304.5 -131.5t-123.5 -333.5zM680 1341l115 228l104 -21l-139 -241z" />
<glyph unicode="&#xe2;" horiz-adv-x="1370" d="M125 563q0 123 41.5 227.5t111.5 174.5t163 109.5t196 39.5q135 0 244.5 -62t185.5 -165v209h100v-1096h-96l-2 180q-69 -85 -174.5 -140.5t-230.5 -55.5q-104 0 -200.5 40.5t-172 113.5t-121 183.5t-45.5 241.5zM223 559q0 -140 63 -251.5t165.5 -170.5t222.5 -59 q229 0 393 198v510q-180 238 -416 238q-181 0 -304.5 -131.5t-123.5 -333.5zM535 1346l167 219h84l170 -219l-63 -43l-148 200l-147 -200z" />
<glyph unicode="&#xe3;" horiz-adv-x="1370" d="M125 563q0 123 41.5 227.5t111.5 174.5t163 109.5t196 39.5q135 0 244.5 -62t185.5 -165v209h100v-1096h-96l-2 180q-69 -85 -174.5 -140.5t-230.5 -55.5q-104 0 -200.5 40.5t-172 113.5t-121 183.5t-45.5 241.5zM223 559q0 -140 63 -251.5t165.5 -170.5t222.5 -59 q229 0 393 198v510q-180 238 -416 238q-181 0 -304.5 -131.5t-123.5 -333.5zM420 1370q16 60 64.5 99t119.5 38q44 -1 90.5 -19.5t79.5 -40.5t73.5 -40t74.5 -18q77 0 116 90l62 -25q-18 -62 -64 -100.5t-110 -38.5q-54 0 -112.5 29t-113.5 58t-98 30q-42 3 -73.5 -23 t-45.5 -68z" />
<glyph unicode="&#xe4;" horiz-adv-x="1370" d="M125 563q0 123 41.5 227.5t111.5 174.5t163 109.5t196 39.5q135 0 244.5 -62t185.5 -165v209h100v-1096h-96l-2 180q-69 -85 -174.5 -140.5t-230.5 -55.5q-104 0 -200.5 40.5t-172 113.5t-121 183.5t-45.5 241.5zM223 559q0 -140 63 -251.5t165.5 -170.5t222.5 -59 q229 0 393 198v510q-180 238 -416 238q-181 0 -304.5 -131.5t-123.5 -333.5zM551 1415q0 28 18.5 47t46.5 19t47 -19t19 -47q0 -29 -20 -48t-46 -19t-45.5 19.5t-19.5 47.5zM819 1415q0 28 19.5 47t48.5 19q27 0 46 -19.5t19 -46.5q0 -29 -20 -48t-45 -19q-27 0 -47.5 19.5 t-20.5 47.5z" />
<glyph unicode="&#xe5;" horiz-adv-x="1370" d="M125 563q0 123 41.5 227.5t111.5 174.5t163 109.5t196 39.5q135 0 244.5 -62t185.5 -165v209h100v-1096h-96l-2 180q-69 -85 -174.5 -140.5t-230.5 -55.5q-104 0 -200.5 40.5t-172 113.5t-121 183.5t-45.5 241.5zM223 559q0 -140 63 -251.5t165.5 -170.5t222.5 -59 q229 0 393 198v510q-180 238 -416 238q-181 0 -304.5 -131.5t-123.5 -333.5zM504 1477q0 99 70 165t171 66t170.5 -66t69.5 -165t-69.5 -164.5t-170.5 -65.5t-171 65.5t-70 164.5zM575 1479q0 -70 50 -118t120 -48t120 48t50 118q0 69 -50.5 117.5t-119.5 48.5t-119.5 -48.5 t-50.5 -117.5z" />
<glyph unicode="&#xe6;" horiz-adv-x="2301" d="M125 563q0 122 41.5 226.5t112 175t165 110t199.5 39.5q154 0 281 -82.5t192 -232.5q69 158 214.5 245t318.5 84q123 -1 230 -50t179 -130t103 -195.5t6 -240.5h-993q7 -106 51 -190.5t113.5 -138t158.5 -82t189 -27.5q75 1 142.5 17t119.5 43t89.5 55.5t67.5 60.5 l58 -74q-46 -48 -106 -88t-161 -72.5t-213 -33.5q-186 -2 -338.5 82t-222.5 237q-65 -144 -185.5 -230.5t-272.5 -86.5q-104 0 -200.5 40.5t-172 113.5t-121 183.5t-45.5 241.5zM223 559q0 -106 37 -197.5t98.5 -153.5t143.5 -97t172 -35q139 0 241.5 81t151.5 197v371 q-49 138 -163.5 218.5t-252.5 80.5q-181 0 -304.5 -131.5t-123.5 -333.5zM1174 600h897q15 116 -36.5 216t-154 159.5t-231.5 60.5q-187 2 -322.5 -115t-152.5 -321z" />
<glyph unicode="&#xe7;" horiz-adv-x="1247" d="M125 551q0 133 49.5 243t132 181t188 109.5t220.5 39.5q220 3 403 -135l-49 -80q-152 123 -350 123q-136 0 -248.5 -60.5t-178 -171t-65.5 -249.5q0 -109 41 -199.5t109.5 -149.5t156 -91.5t181.5 -32.5q207 0 364 143l54 -74q-172 -149 -390 -159l-112 -228l-78 27 l117 201q-83 5 -161.5 30t-148 72.5t-121.5 112t-82.5 154.5t-31.5 194z" />
<glyph unicode="&#xe8;" horiz-adv-x="1347" d="M125 555q0 133 48 244t129 182.5t185 110t218 36.5q123 -1 230 -50t179 -130t103 -195.5t6 -240.5h-994q7 -106 51 -190.5t113.5 -138t158.5 -82t189 -27.5q143 1 248.5 53t173.5 125l56 -76q-47 -48 -106.5 -87.5t-160 -72.5t-211.5 -34q-124 -1 -234 36.5t-196 108 t-136 181.5t-50 247zM229 600h897q15 116 -36 216t-153.5 159.5t-231.5 60.5q-122 1 -224.5 -48.5t-171.5 -150.5t-80 -237zM553 1540l104 21l115 -228l-80 -37z" />
<glyph unicode="&#xe9;" horiz-adv-x="1347" d="M125 555q0 133 48 244t129 182.5t185 110t218 36.5q123 -1 230 -50t179 -130t103 -195.5t6 -240.5h-994q7 -106 51 -190.5t113.5 -138t158.5 -82t189 -27.5q143 1 248.5 53t173.5 125l56 -76q-47 -48 -106.5 -87.5t-160 -72.5t-211.5 -34q-124 -1 -234 36.5t-196 108 t-136 181.5t-50 247zM229 600h897q15 116 -36 216t-153.5 159.5t-231.5 60.5q-122 1 -224.5 -48.5t-171.5 -150.5t-80 -237zM651 1321l115 227l104 -20l-139 -244z" />
<glyph unicode="&#xea;" horiz-adv-x="1347" d="M125 555q0 133 48 244t129 182.5t185 110t218 36.5q123 -1 230 -50t179 -130t103 -195.5t6 -240.5h-994q7 -106 51 -190.5t113.5 -138t158.5 -82t189 -27.5q143 1 248.5 53t173.5 125l56 -76q-47 -48 -106.5 -87.5t-160 -72.5t-211.5 -34q-124 -1 -234 36.5t-196 108 t-136 181.5t-50 247zM229 600h897q15 116 -36 216t-153.5 159.5t-231.5 60.5q-122 1 -224.5 -48.5t-171.5 -150.5t-80 -237zM479 1356l170 219h84l168 -219l-63 -43l-148 200l-147 -200z" />
<glyph unicode="&#xeb;" horiz-adv-x="1347" d="M125 555q0 133 48 244t129 182.5t185 110t218 36.5q123 -1 230 -50t179 -130t103 -195.5t6 -240.5h-994q7 -106 51 -190.5t113.5 -138t158.5 -82t189 -27.5q143 1 248.5 53t173.5 125l56 -76q-47 -48 -106.5 -87.5t-160 -72.5t-211.5 -34q-124 -1 -234 36.5t-196 108 t-136 181.5t-50 247zM229 600h897q15 116 -36 216t-153.5 159.5t-231.5 60.5q-122 1 -224.5 -48.5t-171.5 -150.5t-80 -237zM504 1399q0 28 19 46.5t48 18.5q27 0 46.5 -19t19.5 -46q0 -28 -20.5 -47t-45.5 -19q-27 0 -47 19t-20 47zM774 1399q0 28 19 46.5t47 18.5 t46.5 -18.5t18.5 -46.5t-19.5 -47t-45.5 -19t-46 19t-20 47z" />
<glyph unicode="&#xec;" horiz-adv-x="512" d="M150 1507l104 21l115 -228l-80 -34zM205 0v1096h102v-1096h-102z" />
<glyph unicode="&#xed;" horiz-adv-x="512" d="M195 1300l114 228l105 -21l-140 -241zM205 0v1096h102v-1096h-102z" />
<glyph unicode="&#xee;" horiz-adv-x="528" d="M45 1352l170 219h84l170 -219l-63 -43l-148 200l-149 -200zM205 0v1096h102v-1096h-102z" />
<glyph unicode="&#xef;" horiz-adv-x="512" d="M63 1374q0 28 19.5 47t48.5 19q27 0 46.5 -19.5t19.5 -46.5q0 -29 -20.5 -48t-45.5 -19q-27 0 -47.5 19.5t-20.5 47.5zM205 0v1096h102v-1096h-102zM334 1374q0 28 18.5 47t46.5 19t47 -19t19 -47q0 -30 -20 -48.5t-46 -18.5t-45.5 19.5t-19.5 47.5z" />
<glyph unicode="&#xf0;" horiz-adv-x="1304" d="M133 459q-13 207 111 347t323 152q132 10 268 -46t244 -183q-13 114 -50 211t-89 166.5t-119 122t-137 82.5t-145 43l24 98q153 -26 279 -109l155 213l82 -55l-161 -215q241 -210 266 -573q12 -166 -22 -301.5t-103 -224.5t-163.5 -140.5t-205.5 -60.5q-101 -8 -197 21 t-173.5 88t-128 153.5t-58.5 210.5zM242 459q9 -124 73 -213t157 -128t198 -32q175 12 289.5 151t123.5 367q-103 142 -232.5 206t-254.5 56q-161 -11 -263.5 -125t-90.5 -282z" />
<glyph unicode="&#xf1;" horiz-adv-x="1374" d="M203 0v1096h100l2 -254q205 280 459 280q193 0 313.5 -127t120.5 -350v-645h-102v639q0 181 -97.5 285t-255.5 104q-232 0 -438 -295v-733h-102zM393 1386q15 58 64.5 98.5t120.5 39.5q54 -2 111.5 -31.5t110 -58.5t95.5 -29q79 0 117 90l61 -27q-18 -61 -64 -99 t-110 -38q-43 0 -89.5 17.5t-80.5 39t-76.5 40.5t-77.5 20q-43 1 -73.5 -24t-44.5 -68z" />
<glyph unicode="&#xf2;" horiz-adv-x="1378" d="M125 555q0 166 76.5 297t205 201.5t283.5 70.5q112 0 213.5 -39t179.5 -110t124 -180.5t46 -241.5q0 -136 -49 -246.5t-129.5 -179t-179.5 -105t-205 -36.5q-87 0 -169 23t-154 70.5t-126 114t-85 159.5t-31 202zM225 553q1 -113 40 -204.5t104.5 -149.5t147.5 -89 t173 -32q85 -1 166 29.5t147.5 88t107 150.5t40.5 207q0 115 -40 208.5t-106 150.5t-147 87.5t-168 30.5q-93 0 -177 -33.5t-148.5 -93.5t-102 -151t-37.5 -199zM547 1518l102 20l115 -227l-80 -37z" />
<glyph unicode="&#xf3;" horiz-adv-x="1378" d="M125 555q0 166 76.5 297t205 201.5t283.5 70.5q112 0 213.5 -39t179.5 -110t124 -180.5t46 -241.5q0 -136 -49 -246.5t-129.5 -179t-179.5 -105t-205 -36.5q-87 0 -169 23t-154 70.5t-126 114t-85 159.5t-31 202zM225 553q1 -113 40 -204.5t104.5 -149.5t147.5 -89 t173 -32q85 -1 166 29.5t147.5 88t107 150.5t40.5 207q0 115 -40 208.5t-106 150.5t-147 87.5t-168 30.5q-93 0 -177 -33.5t-148.5 -93.5t-102 -151t-37.5 -199zM590 1311l115 227l104 -20l-139 -244z" />
<glyph unicode="&#xf4;" horiz-adv-x="1378" d="M125 555q0 166 76.5 297t205 201.5t283.5 70.5q112 0 213.5 -39t179.5 -110t124 -180.5t46 -241.5q0 -136 -49 -246.5t-129.5 -179t-179.5 -105t-205 -36.5q-87 0 -169 23t-154 70.5t-126 114t-85 159.5t-31 202zM225 553q1 -113 40 -204.5t104.5 -149.5t147.5 -89 t173 -32q85 -1 166 29.5t147.5 88t107 150.5t40.5 207q0 115 -40 208.5t-106 150.5t-147 87.5t-168 30.5q-93 0 -177 -33.5t-148.5 -93.5t-102 -151t-37.5 -199zM479 1313l168 219h84l170 -219l-63 -43l-148 200l-147 -200z" />
<glyph unicode="&#xf5;" horiz-adv-x="1378" d="M125 555q0 166 76.5 297t205 201.5t283.5 70.5q112 0 213.5 -39t179.5 -110t124 -180.5t46 -241.5q0 -136 -49 -246.5t-129.5 -179t-179.5 -105t-205 -36.5q-87 0 -169 23t-154 70.5t-126 114t-85 159.5t-31 202zM225 553q1 -113 40 -204.5t104.5 -149.5t147.5 -89 t173 -32q85 -1 166 29.5t147.5 88t107 150.5t40.5 207q0 115 -40 208.5t-106 150.5t-147 87.5t-168 30.5q-93 0 -177 -33.5t-148.5 -93.5t-102 -151t-37.5 -199zM330 1339q14 58 63.5 97.5t120.5 38.5q43 -1 89 -19.5t79 -40t74 -39.5t75 -18q79 0 117 90l62 -27 q-18 -62 -64 -99.5t-110 -37.5q-43 0 -89.5 17.5t-80.5 39t-76.5 40.5t-77.5 20q-43 1 -74 -24t-45 -68z" />
<glyph unicode="&#xf6;" horiz-adv-x="1378" d="M125 555q0 166 76.5 297t205 201.5t283.5 70.5q112 0 213.5 -39t179.5 -110t124 -180.5t46 -241.5q0 -136 -49 -246.5t-129.5 -179t-179.5 -105t-205 -36.5q-87 0 -169 23t-154 70.5t-126 114t-85 159.5t-31 202zM225 553q1 -113 40 -204.5t104.5 -149.5t147.5 -89 t173 -32q85 -1 166 29.5t147.5 88t107 150.5t40.5 207q0 115 -40 208.5t-106 150.5t-147 87.5t-168 30.5q-93 0 -177 -33.5t-148.5 -93.5t-102 -151t-37.5 -199zM471 1382q0 28 19 47t47 19t46.5 -19t18.5 -47q0 -30 -19.5 -48.5t-45.5 -18.5t-46 19.5t-20 47.5zM739 1382 q0 28 19.5 47t48.5 19q27 0 46 -19t19 -47q0 -29 -20 -48t-45 -19q-27 0 -47.5 19.5t-20.5 47.5z" />
<glyph unicode="&#xf7;" horiz-adv-x="1482" d="M133 545v73h1217v-73h-1217zM672 184q0 34 21 56t55 22h2q26 0 47.5 -23t21.5 -55q0 -29 -22.5 -53.5t-48.5 -24.5q-33 0 -54.5 23.5t-21.5 54.5zM674 979q0 31 22.5 53.5t51.5 22.5t51 -22.5t22 -53.5q0 -32 -22 -55t-51 -23h-3q-28 0 -49.5 23t-21.5 55z" />
<glyph unicode="&#xf8;" horiz-adv-x="1378" d="M125 555q0 166 76.5 297t205 201.5t283.5 70.5q127 0 234 -45l69 138l72 -33l-72 -142q120 -72 190 -197.5t70 -291.5q0 -136 -49 -246.5t-129.5 -179t-179.5 -105t-205 -36.5q-119 0 -217 39l-74 -144l-69 35l73 141q-128 69 -203 196.5t-75 301.5zM217 553 q0 -145 61 -251.5t164 -166.5l441 864q-88 39 -193 39q-127 0 -234.5 -58t-173.5 -170t-65 -257zM512 102q77 -32 178 -32q87 -1 170 30.5t150 90t108 153t41 209.5q0 140 -56 244t-151 166z" />
<glyph unicode="&#xf9;" horiz-adv-x="1363" d="M190 412v684h103v-680q0 -167 94 -263t238 -96q73 0 142.5 24.5t124 65t96.5 85.5t73 94v770h102v-1096h-98l-2 209q-23 -29 -51 -57.5t-73.5 -64t-93.5 -62t-112.5 -44.5t-130.5 -18q-84 0 -158 29t-131 83.5t-90 141.5t-33 195zM475 1559l105 20l114 -227l-80 -35z" />
<glyph unicode="&#xfa;" horiz-adv-x="1363" d="M190 412v684h103v-680q0 -167 94 -263t238 -96q73 0 142.5 24.5t124 65t96.5 85.5t73 94v770h102v-1096h-98l-2 209q-23 -29 -51 -57.5t-73.5 -64t-93.5 -62t-112.5 -44.5t-130.5 -18q-84 0 -158 29t-131 83.5t-90 141.5t-33 195zM596 1315l115 227l102 -20l-137 -244z " />
<glyph unicode="&#xfb;" horiz-adv-x="1363" d="M190 412v684h103v-680q0 -167 94 -263t238 -96q73 0 142.5 24.5t124 65t96.5 85.5t73 94v770h102v-1096h-98l-2 209q-23 -29 -51 -57.5t-73.5 -64t-93.5 -62t-112.5 -44.5t-130.5 -18q-84 0 -158 29t-131 83.5t-90 141.5t-33 195zM479 1356l170 219h84l170 -219l-65 -43 l-146 200l-149 -200z" />
<glyph unicode="&#xfc;" horiz-adv-x="1363" d="M190 412v684h103v-680q0 -167 94 -263t238 -96q73 0 142.5 24.5t124 65t96.5 85.5t73 94v770h102v-1096h-98l-2 209q-23 -29 -51 -57.5t-73.5 -64t-93.5 -62t-112.5 -44.5t-130.5 -18q-84 0 -158 29t-131 83.5t-90 141.5t-33 195zM469 1421q0 28 19 47t47 19t47.5 -19 t19.5 -47q0 -29 -20.5 -48t-46.5 -19t-46 19.5t-20 47.5zM737 1421q0 28 19.5 47t48.5 19q27 0 46 -19.5t19 -46.5q0 -29 -20 -48t-45 -19q-27 0 -47.5 19.5t-20.5 47.5z" />
<glyph unicode="&#xfd;" horiz-adv-x="1294" d="M47 1096h119l502 -1002l489 1002h119l-846 -1712h-119l299 600zM582 1300l114 228l105 -21l-139 -241z" />
<glyph unicode="&#xfe;" horiz-adv-x="1384" d="M233 -389v1831h103v-516q77 81 179.5 133.5t221.5 52.5q100 0 193.5 -39.5t167 -111.5t118 -184.5t44.5 -246.5q0 -124 -38.5 -228t-104 -174t-153 -109t-184.5 -39q-132 0 -248 65.5t-196 161.5v-596h-103zM336 303q87 -106 194 -168.5t224 -62.5q172 0 287.5 131 t115.5 332q0 106 -36 197.5t-96.5 153.5t-141 97t-168.5 35q-207 0 -379 -187v-528z" />
<glyph unicode="&#xff;" horiz-adv-x="1294" d="M47 1096h119l502 -1002l489 1002h119l-846 -1712h-119l299 600zM453 1374q0 28 18.5 47t46.5 19t47 -19t19 -47q0 -30 -20 -48.5t-46 -18.5t-45.5 19.5t-19.5 47.5zM721 1374q0 28 19 47t48 19q27 0 46.5 -19.5t19.5 -46.5q0 -29 -20.5 -48t-45.5 -19q-27 0 -47 19 t-20 48z" />
<glyph unicode="&#x152;" horiz-adv-x="2648" d="M147 713q0 215 97.5 385t267 263t379.5 93q222 0 395.5 -103t265.5 -284v367h926v-101h-817v-557h629v-96h-629v-580h870v-100h-979v352q-89 -178 -260 -281.5t-399 -103.5q-217 0 -388 97t-264.5 267t-93.5 382zM258 713q0 -186 78.5 -333t224 -230.5t332.5 -83.5 q144 0 264 50.5t200.5 138t124.5 205t44 251.5q0 186 -80 333t-225 228.5t-330 81.5q-279 0 -456 -178t-177 -463z" />
<glyph unicode="&#x153;" horiz-adv-x="2398" d="M125 555q0 166 76.5 297t205 201.5t283.5 70.5q173 0 314 -87.5t204 -245.5q66 162 213.5 252t323.5 87q123 -1 230 -49.5t179 -129.5t103 -196t6 -241h-993q10 -140 83 -241.5t184.5 -149.5t246.5 -47q142 1 247 53t173 125l57 -76q-34 -34 -76.5 -65t-101.5 -61.5 t-137.5 -48.5t-163.5 -19q-192 -2 -347.5 86.5t-224.5 251.5q-44 -108 -128 -185.5t-184 -114t-208 -36.5q-87 0 -169 23t-154 70.5t-126 114t-85 159.5t-31 202zM225 553q1 -113 40 -204.5t104.5 -149.5t147.5 -89t173 -32q85 -1 166 29.5t147.5 88t107 150.5t40.5 207 q0 115 -40 208.5t-106 150.5t-147 87.5t-168 30.5q-93 0 -177 -33.5t-148.5 -93.5t-102 -151t-37.5 -199zM1272 602h895q23 179 -101.5 307.5t-320.5 128.5q-122 1 -224.5 -48.5t-170.5 -150.5t-78 -237z" />
<glyph unicode="&#x178;" d="M111 1434h131l522 -764l526 764h131l-600 -865v-569h-112l-2 567zM569 1712q0 28 19.5 47t48.5 19q27 0 46 -19t19 -47t-20 -46.5t-45 -18.5q-27 0 -47.5 18.5t-20.5 46.5zM840 1712q0 28 18.5 47t46.5 19t47 -19t19 -47t-20 -46.5t-46 -18.5t-45.5 18.5t-19.5 46.5z" />
<glyph unicode="&#x2c6;" horiz-adv-x="1177" d="M727 1628l168 219h84l170 -219l-64 -43l-147 201l-147 -201z" />
<glyph unicode="&#x2dc;" horiz-adv-x="1261" d="M604 1669q16 59 65.5 98.5t121.5 38.5q43 -1 89 -20t79 -40.5t73.5 -39.5t75.5 -18q77 0 115 90l63 -27q-20 -61 -65 -99t-109 -38q-43 0 -89.5 17.5t-80.5 39t-76.5 40.5t-77.5 20q-44 1 -75 -24.5t-45 -68.5z" />
<glyph unicode="&#x2000;" horiz-adv-x="1002" />
<glyph unicode="&#x2001;" horiz-adv-x="2005" />
<glyph unicode="&#x2002;" horiz-adv-x="1002" />
<glyph unicode="&#x2003;" horiz-adv-x="2005" />
<glyph unicode="&#x2004;" horiz-adv-x="668" />
<glyph unicode="&#x2005;" horiz-adv-x="501" />
<glyph unicode="&#x2006;" horiz-adv-x="334" />
<glyph unicode="&#x2007;" horiz-adv-x="334" />
<glyph unicode="&#x2008;" horiz-adv-x="250" />
<glyph unicode="&#x2009;" horiz-adv-x="401" />
<glyph unicode="&#x200a;" horiz-adv-x="111" />
<glyph unicode="&#x2010;" horiz-adv-x="819" d="M88 666v90h643v-90h-643z" />
<glyph unicode="&#x2011;" horiz-adv-x="819" d="M88 666v90h643v-90h-643z" />
<glyph unicode="&#x2012;" horiz-adv-x="819" d="M88 666v90h643v-90h-643z" />
<glyph unicode="&#x2013;" horiz-adv-x="937" d="M88 666v90h762v-90h-762z" />
<glyph unicode="&#x2014;" horiz-adv-x="1212" d="M88 666v90h1038v-90h-1038z" />
<glyph unicode="&#x2018;" horiz-adv-x="210" d="M6 1376q-5 60 35 108.5t106 61.5v-53q-55 -20 -55 -80q30 6 52.5 -10.5t25.5 -46.5q3 -29 -17 -52t-51 -26q-37 -3 -64.5 23.5t-31.5 74.5z" />
<glyph unicode="&#x2019;" horiz-adv-x="210" d="M41 1489q-2 30 18 52.5t50 23.5q36 3 64 -24t32 -73q5 -60 -34 -108.5t-105 -63.5l-3 56q55 17 58 80q-29 -8 -53 9t-27 48z" />
<glyph unicode="&#x201a;" horiz-adv-x="446" d="M141 63q0 29 21.5 50.5t52.5 21.5q38 0 64 -29t26 -77q0 -61 -43.5 -107t-109.5 -55l2 55q58 17 61 76q-31 -5 -52.5 14t-21.5 51z" />
<glyph unicode="&#x201c;" horiz-adv-x="411" d="M6 1376q-5 60 35 108.5t106 61.5v-53q-55 -20 -55 -80q30 6 52.5 -10.5t25.5 -46.5q3 -29 -17 -52t-51 -26q-37 -3 -64.5 23.5t-31.5 74.5zM207 1376q-5 60 34 108.5t105 61.5l2 -53q-57 -21 -57 -80q30 6 53.5 -10.5t24.5 -46.5q3 -29 -16 -52t-50 -26q-37 -3 -65 23.5 t-31 74.5z" />
<glyph unicode="&#x201d;" horiz-adv-x="413" d="M41 1489q-2 30 18 52.5t50 23.5q36 3 64 -24t32 -73q5 -60 -34 -108.5t-105 -63.5l-3 56q55 17 58 80q-29 -8 -53 9t-27 48zM244 1489q-3 29 16.5 52t50.5 24q36 3 64 -24t31 -73q6 -60 -34 -108.5t-106 -63.5v56q56 17 56 80q-29 -7 -52 9.5t-26 47.5z" />
<glyph unicode="&#x201e;" horiz-adv-x="653" d="M141 63q0 29 21.5 50.5t52.5 21.5q38 0 64 -29t26 -77q0 -61 -43.5 -107t-109.5 -55l2 55q58 17 61 76q-31 -5 -52.5 14t-21.5 51zM348 63q0 29 21.5 50.5t52.5 21.5q38 0 64 -29t26 -77q0 -61 -44 -107t-110 -55l2 55q59 17 62 76q-31 -5 -52.5 14t-21.5 51z" />
<glyph unicode="&#x2022;" horiz-adv-x="657" d="M246 659q0 37 26 63t64 26q37 0 62.5 -26t25.5 -63q0 -38 -27 -64t-61 -26q-36 0 -63 26t-27 64z" />
<glyph unicode="&#x2026;" horiz-adv-x="1056" d="M141 63q0 32 22 54t54 22q31 0 53.5 -22t22.5 -54t-23.5 -53.5t-52.5 -21.5q-31 0 -53.5 21.5t-22.5 53.5zM457 63q0 32 21.5 54t53.5 22q31 0 53.5 -22t22.5 -54t-23.5 -53.5t-52.5 -21.5q-31 0 -53 21.5t-22 53.5zM764 63q0 32 22 54t54 22t53.5 -22t21.5 -54 t-23 -53.5t-52 -21.5q-31 0 -53.5 21.5t-22.5 53.5z" />
<glyph unicode="&#x202f;" horiz-adv-x="401" />
<glyph unicode="&#x2039;" horiz-adv-x="792" d="M106 557l478 539h116l-477 -539l479 -557h-116z" />
<glyph unicode="&#x203a;" horiz-adv-x="829" d="M41 0l479 557l-475 539h115l477 -539l-479 -557h-117z" />
<glyph unicode="&#x205f;" horiz-adv-x="501" />
<glyph unicode="&#x20ac;" horiz-adv-x="1566" d="M92 504v69h146q-11 82 -11 142q0 12 1 32.5t1 28.5h-137v72h146q38 280 226.5 452.5t459.5 172.5q136 0 256 -46t209 -129l-50 -75q-77 73 -183 113t-226 40q-231 0 -387.5 -144.5t-192.5 -383.5h688v-72h-696q-2 -18 -2 -61q0 -67 10 -142h688v-71h-673 q53 -206 200 -329.5t365 -123.5q136 0 252.5 52.5t195.5 144.5l54 -74q-91 -103 -222 -161t-286 -58q-259 0 -437 150.5t-235 400.5h-160z" />
<glyph unicode="&#x2122;" horiz-adv-x="1880" d="M72 1337v101h721v-101h-308v-694h-106v694h-307zM850 643v795h96l342 -461l354 461h95v-795h-107v625l-342 -449l-330 447v-623h-108z" />
<glyph unicode="&#x25fc;" horiz-adv-x="1095" d="M0 0v1096h1096v-1096h-1096z" />
</font>
</defs>
</svg>
