<?xml version="1.0" standalone="no"?>
<!DOCTYPE svg PUBLIC "-//W3C//DTD SVG 1.1//EN" "http://www.w3.org/Graphics/SVG/1.1/DTD/svg11.dtd" >
<svg xmlns="http://www.w3.org/2000/svg">
<metadata></metadata>
<defs>
<font id="tide_sans500_dudette" horiz-adv-x="1388" >
<font-face units-per-em="2048" ascent="1638" descent="-410" />
<missing-glyph horiz-adv-x="716" />
<glyph unicode="&#xfb01;" horiz-adv-x="1484" d="M82 852v246h201v37q0 127 47.5 226.5t126.5 158.5t174 89.5t198 30.5q216 0 447 -129l-102 -233q-156 117 -318 117q-122 0 -204.5 -69.5t-82.5 -195.5v-32h772v-1098h-286v852h-486v-852h-286v852h-201z" />
<glyph unicode="&#xfb02;" horiz-adv-x="1458" d="M82 852v246h160v39q0 114 44.5 206t120 149t170 87.5t199.5 30.5q252 0 514 -197v-1413h-289v1296q-116 68 -210 68q-109 0 -186 -60t-77 -171v-35h246l-2 -246h-244v-852h-286v852h-160z" />
<glyph horiz-adv-x="2048" />
<glyph horiz-adv-x="2048" />
<glyph unicode="&#xd;" horiz-adv-x="2048" />
<glyph unicode=" "  horiz-adv-x="716" />
<glyph unicode="&#x09;" horiz-adv-x="716" />
<glyph unicode="&#xa0;" horiz-adv-x="716" />
<glyph unicode="!" horiz-adv-x="679" d="M176 141q0 66 47 114t113 48t113 -48t47 -114q0 -67 -47.5 -113t-112.5 -46t-112.5 46.5t-47.5 112.5zM182 1434h322l-39 -994h-252z" />
<glyph unicode="&#x22;" horiz-adv-x="681" d="M66 1376v189h233v-189l-39 -194h-154zM383 1376v189h233v-189l-38 -194h-154z" />
<glyph unicode="#" horiz-adv-x="1581" d="M104 274v232h265l37 299h-240v229h268l35 279h238l-35 -279h311l35 279h237l-34 -279h258v-229h-287l-37 -299h262v-232h-291l-34 -274h-238l35 274h-311l-35 -274h-238l35 274h-236zM606 506h312l36 299h-311z" />
<glyph unicode="$" horiz-adv-x="1110" d="M98 328l101 221q188 -129 399 -129q63 0 105 21.5t49 58.5q5 24 -8 40.5t-44.5 27.5t-64 17.5l-82.5 16.5t-84 19q-316 89 -268 325q25 121 128 201t253 90l26 156l195 -33l-25 -137q129 -34 240 -103l-86 -202q-149 102 -307 102q-157 0 -183 -80q-15 -49 51 -75 q31 -12 122 -31l49 -11q66 -14 112.5 -28.5t99 -42t82.5 -62t45 -89.5t3 -124q-25 -144 -133.5 -222.5t-260.5 -86.5l-24 -148l-195 33l21 135q-166 38 -316 140z" />
<glyph unicode="%" horiz-adv-x="1701" d="M109 1149q0 136 92.5 226.5t232.5 90.5q147 0 235.5 -93.5t88.5 -223.5q0 -137 -88 -226t-236 -89q-137 0 -231 88t-94 227zM250 0l928 1434h245l-929 -1434h-244zM274 1147q0 -66 46 -114t118 -48t117 48t45 114t-45 114t-117 48q-71 0 -117.5 -48.5t-46.5 -113.5z M944 293q0 137 93.5 228t232.5 91q145 0 234 -94.5t89 -224.5q0 -137 -88.5 -226.5t-234.5 -89.5q-137 0 -231.5 88.5t-94.5 227.5zM1114 291q0 -64 44.5 -111t115.5 -47q70 0 114 47t44 111q0 65 -44 112.5t-114 47.5q-71 0 -115.5 -47t-44.5 -113z" />
<glyph unicode="&#x26;" horiz-adv-x="1689" d="M135 389q0 69 20.5 129.5t52.5 106t81 86.5t97.5 69.5t109.5 57.5l-15 14q-110 113 -110 262q0 109 60 198.5t158.5 139t211.5 49.5q181 0 297 -111t116 -274q0 -119 -70 -201t-194 -147l217 -227q29 101 29 217h307q8 -267 -100 -463l280 -295h-389l-77 80 q-105 -80 -231.5 -120t-244.5 -40q-91 0 -177 17.5t-164.5 55t-137 91.5t-93 132.5t-34.5 172.5zM444 397q0 -96 82.5 -148t208.5 -52q156 0 275 102l-330 344q-115 -55 -175.5 -111t-60.5 -135zM670 1130q-1 -40 24 -80.5t76 -93.5q82 39 125 78.5t43 91.5q0 56 -37.5 90.5 t-97.5 34.5q-56 0 -94 -34t-39 -87z" />
<glyph unicode="'" horiz-adv-x="364" d="M66 1376v189h233v-189l-39 -194h-154z" />
<glyph unicode="(" horiz-adv-x="833" d="M98 608q0 123 19.5 246t45 215.5t72 203.5t78.5 175.5t86 167.5l254 -127q-245 -453 -245 -879q0 -414 249 -882l-251 -129q-58 109 -88.5 169.5t-79.5 174t-74.5 203.5t-45.5 214t-20 248z" />
<glyph unicode=")" horiz-adv-x="833" d="M176 -272q250 469 250 882q0 425 -246 879l254 127q54 -103 86 -167.5t78.5 -175.5t72 -203.5t45 -215.5t19.5 -246q0 -104 -11.5 -203.5t-37.5 -193.5t-50 -166.5t-66.5 -163.5t-68 -142t-73.5 -140z" />
<glyph unicode="*" horiz-adv-x="933" d="M141 1278l37 154l211 -52l2 217l162 -4l-6 -211l207 45l39 -155l-207 -41l131 -184l-125 -80l-127 184l-117 -182l-125 88l123 178z" />
<glyph unicode="+" horiz-adv-x="1449" d="M195 821h407v441h242v-441h409v-221h-409v-440h-242v440h-405z" />
<glyph unicode="," horiz-adv-x="491" d="M78 123q0 64 46 107.5t112 43.5q73 0 124.5 -52.5t51.5 -141.5q0 -118 -88.5 -197.5t-210.5 -79.5l10 95q38 6 66.5 31t37.5 63q-58 -12 -103.5 27t-45.5 104z" />
<glyph unicode="-" horiz-adv-x="847" d="M72 602v240h704v-240h-704z" />
<glyph unicode="." horiz-adv-x="481" d="M78 133q0 66 48 114t114 48t113.5 -48t47.5 -114q0 -68 -48.5 -116t-112.5 -48q-66 0 -114 48.5t-48 115.5z" />
<glyph unicode="/" horiz-adv-x="960" d="M106 -252l512 1755h265l-512 -1755h-265z" />
<glyph unicode="0" horiz-adv-x="1562" d="M109 719q0 147 38.5 271.5t104 209.5t152.5 144.5t182 87t194 26.5q97 -1 191.5 -28.5t182.5 -87t154 -144.5t106 -209t40 -272t-39.5 -272.5t-105 -209.5t-153 -145t-182.5 -87.5t-194 -27.5t-193.5 27.5t-181.5 87.5t-152.5 145.5t-104.5 210t-39 273.5zM416 723 q0 -221 104 -346t260 -125t261.5 124t105.5 343q0 110 -29.5 198.5t-80 145.5t-116.5 87t-141 30q-155 0 -259.5 -120.5t-104.5 -336.5z" />
<glyph unicode="1" horiz-adv-x="864" d="M88 1247l281 187h274v-1434h-307v1178l-150 -97z" />
<glyph unicode="2" horiz-adv-x="1384" d="M106 0v240l633 485q156 119 156 240q0 89 -68.5 150t-169.5 61q-166 0 -264 -193l-256 141q70 137 213 232.5t322 95.5q103 0 198.5 -34t169 -94t118 -149t44.5 -192q0 -238 -244 -434l-340 -273h615v-276h-1127z" />
<glyph unicode="3" horiz-adv-x="1318" d="M84 160l117 237q220 -135 422 -135q127 0 201.5 49t74.5 119t-74.5 118t-189.5 48h-227v276h208q100 0 163 43.5t63 110.5q0 64 -60.5 108t-171.5 44q-168 0 -344 -113l-116 246q254 145 499 145q216 0 357.5 -101t140.5 -270q-1 -116 -70.5 -199.5t-185.5 -121.5 q135 -25 225 -118.5t90 -237.5q0 -100 -46 -181.5t-124 -134t-178.5 -80.5t-212.5 -28q-295 0 -561 176z" />
<glyph unicode="4" horiz-adv-x="1374" d="M57 289v213l723 932h312v-869h204v-276h-204v-289h-293v289h-742zM414 565h391v504z" />
<glyph unicode="5" horiz-adv-x="1417" d="M135 170l139 225q181 -144 377 -141q133 2 220.5 68.5t86.5 177.5q-1 103 -80 166t-202 63q-166 0 -350 -123l-127 84l65 744h903v-277h-635l-28 -289q160 93 321 93q190 0 317.5 -121.5t127.5 -329.5q0 -125 -50.5 -228t-134.5 -169t-191.5 -102t-223.5 -36 q-144 0 -282.5 52t-252.5 143z" />
<glyph unicode="6" horiz-adv-x="1400" d="M82 694q0 147 41 272t110.5 213.5t162 151.5t196.5 93t213 30q223 0 420 -121l-105 -248q-145 97 -297 97q-174 0 -296.5 -117t-135.5 -330q68 113 180 177.5t246 64.5q130 0 244 -58.5t185 -168t71 -244.5q0 -150 -79.5 -271t-211 -187t-285.5 -66q-100 0 -195 28 t-179.5 87t-147.5 141.5t-100 200t-37 255.5zM432 473q49 -104 139 -159.5t187 -55.5q105 0 178.5 61.5t73.5 167.5q0 105 -71 164.5t-171 59.5q-108 0 -199 -67.5t-137 -170.5z" />
<glyph unicode="7" horiz-adv-x="1269" d="M92 1124v310h1067v-275l-659 -1159h-387l671 1124h-692z" />
<glyph unicode="8" horiz-adv-x="1431" d="M117 381q-1 78 30 145.5t80 111t102.5 71t104.5 36.5q-44 11 -86.5 35.5t-81 62.5t-62 94.5t-24.5 121.5q-1 118 72 209t193.5 138t267.5 48q85 1 163.5 -14.5t145.5 -47.5t117 -77.5t78.5 -108.5t29.5 -137q1 -128 -79 -212.5t-181 -106.5q53 -12 107.5 -39.5t105 -70.5 t82.5 -108t33 -139q1 -127 -79.5 -223t-215 -145.5t-303.5 -51.5q-172 -2 -307.5 46.5t-213.5 142.5t-79 219zM426 420q0 -74 77 -126.5t212 -49.5q132 3 210 55.5t76 128.5q-2 75 -80.5 122t-207.5 46q-128 -2 -207.5 -50t-79.5 -126zM487 1030q2 -62 63.5 -101t164.5 -38 q99 1 159 41.5t58 103.5q-1 64 -70.5 110t-150.5 44q-95 -1 -160.5 -48t-63.5 -112z" />
<glyph unicode="9" horiz-adv-x="1421" d="M102 922q-1 154 79.5 277t213.5 189t291 66q101 0 195.5 -28.5t176.5 -87t143.5 -141.5t96.5 -200.5t35 -255.5q0 -146 -39.5 -271t-108 -213.5t-160.5 -151.5t-196.5 -93t-216.5 -30q-229 0 -419 122l104 244q145 -94 297 -94q163 0 283.5 103t150.5 292 q-71 -99 -183.5 -155t-240.5 -56q-96 0 -185 32.5t-159.5 92t-113.5 153t-44 206.5zM408 932q1 -104 74.5 -165.5t181.5 -61.5q103 0 189.5 57.5t143.5 152.5q-41 122 -125 192.5t-198 70.5q-116 0 -191.5 -69.5t-74.5 -176.5z" />
<glyph unicode=":" horiz-adv-x="464" d="M80 182q0 62 45 107t106 45q60 0 105 -45.5t45 -106.5q0 -62 -45.5 -106.5t-104.5 -44.5q-62 0 -106.5 44t-44.5 107zM80 887q0 61 45 106t106 45q60 0 105 -45t45 -106q0 -62 -45.5 -107t-104.5 -45q-62 0 -106.5 44.5t-44.5 107.5z" />
<glyph unicode=";" horiz-adv-x="534" d="M82 864q0 64 47 111t111 47q63 0 109 -47t46 -111q0 -66 -47 -112.5t-108 -46.5q-65 0 -111.5 46.5t-46.5 112.5zM113 123q0 64 45.5 107.5t111.5 43.5q73 0 124.5 -52.5t51.5 -141.5q0 -118 -88.5 -197.5t-210.5 -79.5l11 95q38 6 66.5 31t37.5 63q-58 -12 -103.5 27 t-45.5 104z" />
<glyph unicode="&#x3c;" horiz-adv-x="1406" d="M90 602v209l1036 360l64 -239l-754 -221l754 -222l-64 -243z" />
<glyph unicode="=" d="M176 590h1036v-221h-1034zM176 1018h1036v-219h-1034z" />
<glyph unicode="&#x3e;" horiz-adv-x="1406" d="M139 489l754 222l-754 221l64 239l1036 -360v-209l-1036 -356z" />
<glyph unicode="?" horiz-adv-x="1329" d="M135 1110q61 151 181 241.5t272 102.5q97 8 190.5 -15.5t168 -72t120 -128t45.5 -177.5q0 -73 -22 -130t-56.5 -94t-77 -68.5t-84.5 -62.5t-76.5 -66.5t-56.5 -89.5t-22 -124l-305 -2q0 102 21.5 185t56 135.5t76.5 93.5t83.5 68.5t76 50.5t56 49.5t21.5 56.5 q0 60 -54.5 92.5t-134.5 24.5q-78 -8 -131 -53t-96 -142zM414 145q0 63 46 108.5t109 45.5t108.5 -45.5t45.5 -108.5q0 -65 -46.5 -110t-107.5 -45q-63 0 -109 45.5t-46 109.5z" />
<glyph unicode="@" horiz-adv-x="2207" d="M102 524q16 171 80 323t166.5 268.5t233.5 201t285.5 128.5t318.5 44q162 0 309 -42.5t267 -126.5t203.5 -199t120.5 -270t17 -331q-14 -115 -49.5 -212.5t-85 -166t-111.5 -116.5t-129.5 -71t-136.5 -22q-127 1 -209 77t-100 200q-62 -88 -150.5 -134t-181.5 -46 q-73 0 -142 29.5t-126 86.5t-86 154t-16 219q13 113 56.5 202t106 142.5t134.5 81t147 27.5q100 0 181.5 -44t135.5 -114l21 117l246 2l-66 -600q-10 -162 78 -162q77 0 144 96.5t85 257.5q17 156 -28 292.5t-136.5 230.5t-222.5 148t-282 54t-292 -54t-250.5 -149 t-182 -234.5t-88.5 -301.5q-16 -164 29 -306t134.5 -240t218.5 -154t277 -56q167 0 317 68l70 -234q-190 -75 -389 -75q-160 0 -307.5 47t-265.5 137t-202 212t-123.5 281t-23.5 334zM836 526q-12 -120 51 -195t174 -75q47 0 90.5 17t67 34.5t65.5 52.5l35 310 q-99 114 -229 114q-100 0 -171 -72t-83 -186z" />
<glyph unicode="A" horiz-adv-x="1574" d="M6 0l633 1434h297l633 -1434h-336l-113 283h-663l-111 -283h-340zM567 561h441l-222 555z" />
<glyph unicode="B" horiz-adv-x="1415" d="M176 0v1434q190 6 467 6q134 -1 237.5 -22t167 -54.5t104 -81.5t56 -97.5t15.5 -107.5q0 -115 -59.5 -192.5t-166.5 -102.5q146 -25 241 -123.5t95 -255.5q0 -197 -167 -305t-519 -108q-111 0 -471 10zM483 254q99 -3 170 -3q42 0 74 1q139 5 218 54.5t79 133.5 q0 83 -82 132t-250 55q-28 1 -57 1q-70 0 -152 -5v-369zM483 891q66 -4 126 -3.5t114 3.5q103 7 151 47q42 36 42 90q0 7 -1 14q-6 64 -58.5 98.5t-127.5 37.5q-24 2 -82 2h-31q-82 0 -133 -4v-285z" />
<glyph unicode="C" horiz-adv-x="1472" d="M98 700q0 168 59.5 310t163.5 239t246 152.5t305 58.5h21q224 0 450 -100l-100 -258q-161 82 -327 82h-19q-93 -2 -178.5 -32t-156.5 -86t-113.5 -149.5t-42.5 -211.5q0 -119 42.5 -209.5t114 -142.5t156.5 -77.5t180 -25.5q181 0 342 90l111 -254q-228 -113 -461 -113 h-7q-156 0 -294 46q-142 47 -252 136t-175 230t-65 315z" />
<glyph unicode="D" horiz-adv-x="1572" d="M176 0v1434q200 4 387 4q154 -1 287.5 -25.5t249.5 -79.5t198.5 -136t129.5 -200t47 -266q0 -235 -116 -402.5t-322 -251t-482 -83.5q-242 0 -379 6zM479 272q35 -2 71.5 -2t74.5 2q109 5 203.5 33t172 81t122 139.5t44.5 197.5q0 96 -34.5 173t-89.5 125t-127.5 80 t-143 45t-141.5 13h-5q-4 0 -11 0.5t-17.5 1t-23.5 0.5h-27.5t-32 -0.5t-35.5 -1.5v-887z" />
<glyph unicode="E" horiz-adv-x="1355" d="M176 0v1434h1038v-277h-731v-307h555v-260h-555v-314h779v-276h-1086z" />
<glyph unicode="F" horiz-adv-x="1284" d="M176 0v1434h1036v-277h-729v-373h531v-270h-531v-514h-307z" />
<glyph unicode="G" horiz-adv-x="1615" d="M202 1096q103 172 286.5 272t412.5 102h9q235 0 458 -102l-98 -270q-164 96 -343 96h-18q-137 -4 -250.5 -63.5t-183 -170t-69.5 -249.5q0 -208 144 -341.5t357 -133.5q166 0 310 86v208h-353v267h649v-643q-63 -48 -140 -87.5t-204.5 -73.5t-261.5 -34q-229 0 -413.5 94 t-290.5 267q-105 170 -105 387q0 214 104 389z" />
<glyph unicode="H" horiz-adv-x="1660" d="M176 0v1434h307v-588h695v588h307v-1434h-307v569h-695v-569h-307z" />
<glyph unicode="I" horiz-adv-x="651" d="M176 0v1434h299v-1434h-299z" />
<glyph unicode="J" horiz-adv-x="901" d="M23 236q204 2 312.5 128t108.5 365v705h308v-711q0 -204 -47 -351t-141 -237.5t-226 -133t-311 -42.5z" />
<glyph unicode="K" horiz-adv-x="1456" d="M176 0v1434h303v-727l578 727h354l-512 -627l586 -807h-377l-399 575l-230 -280v-295h-303z" />
<glyph unicode="L" horiz-adv-x="1198" d="M176 0v1434h307v-1158h705v-276h-1012z" />
<glyph unicode="M" horiz-adv-x="2041" d="M176 0v1434h289l547 -736l561 736h293v-1434h-316v934l-536 -711l-527 713v-936h-311z" />
<glyph unicode="N" horiz-adv-x="1683" d="M176 0v1434h301l721 -940v940h309v-1434h-290l-734 946v-946h-307z" />
<glyph unicode="O" horiz-adv-x="1736" d="M98 707q0 167 59.5 309t162.5 239t244.5 151t303.5 54q161 0 302.5 -54t245 -150.5t163 -238t59.5 -308.5q0 -162 -56 -302t-155.5 -240t-243.5 -157t-313 -57q-166 0 -308.5 55t-245 153t-160.5 239t-58 307zM408 707q0 -212 126 -345t336 -133q140 0 245.5 63.5 t159.5 171.5t54 245q0 211 -126.5 343t-334.5 132q-206 0 -333 -131.5t-127 -345.5z" />
<glyph unicode="P" horiz-adv-x="1404" d="M176 0v1434q257 10 442 10q355 0 542.5 -131t187.5 -395q0 -109 -33 -199.5t-88.5 -151.5t-131.5 -104.5t-158.5 -65t-172.5 -26.5q-120 -6 -281 -6v-365h-307zM483 641q168 0 240 4q151 9 234 72.5t83 179.5q0 118 -85.5 189t-233.5 77q-68 2 -238 2v-524z" />
<glyph unicode="Q" horiz-adv-x="1792" d="M98 707q0 167 59.5 309t162.5 239t244.5 151t303.5 54q161 0 302.5 -54t245 -150.5t163 -238t59.5 -308.5q0 -284 -162.5 -486t-433.5 -254q43 -25 92.5 -65t82.5 -70.5t75.5 -56.5t81.5 -33q14 -2 28 -2q114 0 193 133l174 -141q-65 -133 -173 -202q-79 -51 -181 -51 q-36 0 -76 7q-65 11 -125 41.5t-106.5 67t-89.5 72.5t-90 65t-92 39q-19 3 -37 3q-48 0 -91 -23q-58 -32 -96 -103l-176 151q66 128 176 189q-235 71 -374.5 262t-139.5 455zM408 707q0 -212 126 -345t336 -133q140 0 245.5 63.5t159.5 171.5t54 245q0 211 -126.5 343 t-334.5 132q-206 0 -333 -131.5t-127 -345.5z" />
<glyph unicode="R" horiz-adv-x="1466" d="M176 0v1434q61 1 161 2.5t181.5 2.5t153.5 1q152 -1 275.5 -41t205.5 -111.5t126 -170.5t44 -216q0 -280 -231 -424l241 -477h-350l-190 379q-66 -4 -95 -4q-46 0 -130 1t-85 1v-377h-307zM483 649q46 -1 88 -1q70 0 129 3q158 10 237 79t79 179q0 116 -91 182t-237 72 q-74 4 -205 4v-518z" />
<glyph unicode="S" horiz-adv-x="1380" d="M117 123l110 256q233 -131 447 -131h6q132 1 209.5 48.5t79.5 119.5q1 28 -9.5 50t-32.5 37.5t-47.5 27.5t-64.5 22t-72 17.5t-81.5 18t-83.5 19.5q-74 19 -132.5 41.5t-114.5 57t-93.5 77.5t-61 103t-24.5 133v6q0 87 30 158q32 74 86 124t127.5 84.5t154.5 50t169 15.5 q229 0 455 -104l-89 -267q-192 95 -366 95q-111 0 -183 -40q-69 -38 -69 -102v-6q1 -22 10 -40t29.5 -32t41 -24.5t58 -21.5t65.5 -18t77.5 -19t82.5 -21q87 -23 150 -46t122.5 -58t96.5 -78t60 -104q24 -64 24 -143q0 -112 -44 -200q-46 -90 -127 -145.5t-184.5 -84 t-223.5 -30.5h-17l-227 25q-122 26 -199.5 58t-144.5 71z" />
<glyph unicode="T" horiz-adv-x="1259" d="M10 1157v277h1239v-277h-467v-1157h-307v1157h-465z" />
<glyph unicode="U" horiz-adv-x="1630" d="M150 625v809h307v-824q0 -171 94 -274t260 -103t264.5 104.5t98.5 274.5v822h307v-799q0 -128 -34 -238.5t-95.5 -190.5t-144.5 -137t-182 -85.5t-208 -28.5q-104 0 -200.5 25.5t-182 79.5t-148.5 132t-99.5 189t-36.5 244z" />
<glyph unicode="V" horiz-adv-x="1542" d="M-39 1434h328l487 -1100l477 1100h328l-635 -1434h-334z" />
<glyph unicode="W" horiz-adv-x="2273" d="M25 1434h309l330 -1037l350 1037h252l364 -1037l312 1037h309l-463 -1434h-293l-352 969l-336 -969h-295z" />
<glyph unicode="X" horiz-adv-x="1517" d="M47 0l510 733l-483 701h364l322 -473l340 473h362l-493 -703l506 -731h-365l-350 506l-348 -506h-365z" />
<glyph unicode="Y" horiz-adv-x="1587" d="M41 1434h369l385 -586l385 586h368l-590 -875v-559h-333l-2 569z" />
<glyph unicode="Z" horiz-adv-x="1447" d="M92 0v252l858 907h-815v275h1213v-263l-840 -892h844v-279h-1260z" />
<glyph unicode="[" horiz-adv-x="782" d="M143 -340v1909h475l-2 -172h-180v-1567h180v-170h-473z" />
<glyph unicode="\" horiz-adv-x="925" d="M68 1448l227 59l512 -1757l-227 -59z" />
<glyph unicode="]" horiz-adv-x="782" d="M123 1569h475v-1909h-473v170h180v1567h-180z" />
<glyph unicode="^" horiz-adv-x="1302" d="M70 725l501 709h158l502 -709h-277l-303 463l-303 -463h-278z" />
<glyph unicode="_" horiz-adv-x="745" d="M20 0h705v-207h-705v207z" />
<glyph unicode="`" horiz-adv-x="1302" d="M588 1931l286 45l146 -313l-215 -88z" />
<glyph unicode="a" horiz-adv-x="1359" d="M92 565q0 100 28.5 188t78 153t114.5 112.5t140.5 71.5t154.5 24q113 0 201.5 -48t138.5 -122l6 154h273v-1098h-264l-9 135q-45 -65 -129 -108t-194 -43q-102 0 -199 41.5t-172.5 115t-121.5 184.5t-46 240zM362 561q0 -145 91.5 -236.5t224.5 -91.5q81 0 150.5 36 t119.5 96v346q-49 75 -123 119t-161 44q-123 0 -212.5 -85.5t-89.5 -227.5z" />
<glyph unicode="b" horiz-adv-x="1439" d="M174 0v1481h287v-537q178 170 387 170q94 0 181.5 -34t159.5 -99t115.5 -173t43.5 -243q0 -113 -30.5 -209.5t-82.5 -163.5t-120 -115t-142.5 -70.5t-151.5 -22.5q-196 0 -368 151l-9 -135h-270zM461 379q46 -60 119.5 -100t160.5 -41h6q131 0 221 87q92 89 93 232 q0 138 -86.5 221.5t-208.5 83.5q-92 0 -171.5 -46.5t-133.5 -113.5v-323z" />
<glyph unicode="c" horiz-adv-x="1236" d="M92 552q0 135 54 246q54 113 144 183t200 107.5t227 37.5q243 0 434 -153l-127 -219q-114 127 -291 127q-153 0 -252.5 -96.5t-101.5 -235.5q-1 -142 98.5 -236t247.5 -94q172 0 297 129l137 -198q-206 -175 -463 -175q-91 0 -178 23t-164 70.5t-135 114t-92 160.5 q-35 97 -35 209z" />
<glyph unicode="d" horiz-adv-x="1439" d="M92 565q0 135 43.5 243t115.5 173t159.5 99t181.5 34q209 0 387 -170v537h287v-1481h-271l-8 135q-172 -151 -369 -151q-97 0 -189 37t-168 106.5t-122.5 183.5t-46.5 254zM379 557q0 -143 92 -232q90 -87 221 -87h6q87 1 161 41t120 100v323q-54 67 -133.5 113.5 t-171.5 46.5q-122 0 -208.5 -83.5t-86.5 -221.5z" />
<glyph unicode="e" horiz-adv-x="1357" d="M92 557q0 130 48.5 239.5t131.5 182.5t194 113q108 39 230 38h6q88 -1 167.5 -22.5t141 -59t112.5 -88.5t83 -111.5t52 -128.5q18 -61 17 -124v-14q-2 -70 -18 -140l-862 2q34 -108 128 -164q91 -54 211 -53h9q186 2 355 138l141 -207q-82 -71 -213 -123.5t-289 -52.5 q-126 0 -240.5 37t-205.5 107t-145 181.5t-54 249.5zM395 676h586q0 86 -74.5 147.5t-199.5 61.5q-113 0 -196.5 -54t-115.5 -155z" />
<glyph unicode="f" horiz-adv-x="872" d="M82 852v246h160v39q0 110 39 195t104.5 135t143.5 75t163 25q164 0 330 -88l-82 -201q-99 63 -198 63h-9q-90 -2 -147.5 -49t-57.5 -151v-43h256v-246h-256v-852h-286v852h-160z" />
<glyph unicode="g" horiz-adv-x="1382" d="M92 565q0 136 44.5 244t117.5 173t161.5 98.5t182.5 33.5q203 0 367 -164l10 148h274v-1053q0 -119 -34 -214t-89.5 -156.5t-131 -102.5t-155 -58.5t-165.5 -17.5q-245 0 -477 135l94 219q174 -108 352 -108q143 0 231.5 72.5t88.5 214.5v127q-31 -33 -58 -55.5 t-68.5 -48.5t-95.5 -39t-118 -13q-82 0 -159 22.5t-144.5 69t-118 112.5t-80 159t-29.5 202zM379 565q0 -135 90.5 -221t220.5 -86q80 0 151.5 33t121.5 82v366q-54 54 -128.5 90.5t-156.5 36.5q-126 0 -212.5 -83.5t-86.5 -217.5z" />
<glyph unicode="h" horiz-adv-x="1419" d="M168 0v1485h287v-584q174 217 397 217q83 0 159 -28.5t141.5 -85.5t104.5 -155.5t39 -225.5v-623h-286v600q0 117 -67.5 187.5t-168.5 70.5q-99 0 -181.5 -64.5t-137.5 -150.5v-643h-287z" />
<glyph unicode="i" horiz-adv-x="618" d="M143 1409q0 67 47.5 114.5t116.5 47.5q68 0 118 -47.5t50 -114.5q0 -68 -49.5 -114t-116.5 -46q-68 0 -117 46.5t-49 113.5zM164 0v1098h287v-1098h-287z" />
<glyph unicode="j" horiz-adv-x="577" d="M-338 -403l90 217q91 -58 198 -58h11q78 2 135.5 51t57.5 160v1131h286v-1137q0 -112 -38.5 -200.5t-104 -142.5t-146 -82t-169.5 -28q-155 0 -320 89zM143 1407q0 59 45 102t109 43q63 0 108.5 -42.5t45.5 -102.5q0 -61 -45.5 -102t-108.5 -41t-108.5 41.5t-45.5 101.5z " />
<glyph unicode="k" horiz-adv-x="1302" d="M168 0v1479h285v-871l432 490h370l-430 -463l486 -635h-371l-309 426l-178 -193v-233h-285z" />
<glyph unicode="l" horiz-adv-x="622" d="M168 0v1479h287v-1479h-287z" />
<glyph unicode="m" horiz-adv-x="2009" d="M133 0v1098h277l2 -195q64 94 157 159.5t205 65.5q116 0 212.5 -62t133.5 -173q61 97 157.5 166t219.5 69q76 0 145 -28t124 -80t87.5 -134.5t32.5 -183.5v-702h-287v659q0 97 -49.5 154t-128.5 57q-86 0 -155 -61t-113 -143v-666h-287v659q0 97 -51.5 154t-132.5 57 q-72 0 -143.5 -61t-118.5 -143v-666h-287z" />
<glyph unicode="n" horiz-adv-x="1349" d="M133 0v1098h277l10 -187q184 207 395 207q176 0 294 -126t118 -351v-641h-289l2 616q0 113 -57 180.5t-156 67.5q-94 0 -175 -58t-132 -138v-668h-287z" />
<glyph unicode="o" d="M92 555q0 164 78.5 295t216.5 203.5t309 72.5q163 0 298 -67.5t218.5 -200t83.5 -305.5q0 -110 -33 -204t-90 -160.5t-134 -113t-163.5 -69t-179.5 -22.5q-123 0 -232 38.5t-192 109.5t-131.5 180.5t-48.5 242.5zM381 553q0 -155 90.5 -239.5t224.5 -84.5q61 0 116 20 t99 58.5t70.5 102t26.5 143.5q0 108 -45.5 183.5t-114 109t-152.5 33.5q-135 0 -225 -86t-90 -240z" />
<glyph unicode="p" horiz-adv-x="1380" d="M133 -379v1477h275l12 -144q172 160 375 160q75 0 146 -21.5t134 -66t110.5 -108.5t75 -155t27.5 -198q0 -121 -33 -220.5t-87 -165t-124 -111t-142 -65t-144 -19.5q-107 0 -189 36t-157 99v-498h-279zM418 348q48 -44 121.5 -79.5t158.5 -35.5q126 0 214.5 85t88.5 237 q0 76 -24 135.5t-65 96t-91.5 55t-107.5 18.5q-88 0 -167 -40.5t-126 -94.5z" />
<glyph unicode="q" horiz-adv-x="1380" d="M92 545q0 116 30 212.5t80 161.5t117 110t140 65t151 20q117 0 199.5 -46t151.5 -124l12 154h274v-1477h-278v514q-147 -151 -355 -151q-79 0 -152.5 19t-141.5 62.5t-118 107.5t-80 159.5t-30 212.5zM379 553q0 -151 89.5 -235.5t217.5 -84.5q144 0 277 115l-2 377 q-124 135 -285 135q-56 0 -107 -18t-94.5 -53.5t-69.5 -96.5t-26 -139z" />
<glyph unicode="r" horiz-adv-x="890" d="M133 0v1098h260l13 -187q55 102 139.5 154.5t179.5 52.5q79 0 160 -43l-66 -244q-55 35 -119 35q-171 0 -280 -207v-659h-287z" />
<glyph unicode="s" horiz-adv-x="1220" d="M98 109l101 225q198 -117 414 -117h14q95 3 157 29q59 25 58 69q0 25 -17 43q-16 16 -52 28t-67 19t-92.5 18t-97.5 19q-65 14 -115 29.5t-102.5 42t-86.5 60.5t-55.5 84.5t-21.5 113.5q0 116 69 200q68 84 178 122q105 37 235 36h14q211 -2 413 -90l-69 -237 q-62 30 -156 56t-188 26q-96 0 -151.5 -32.5t-55.5 -76.5q0 -22 15 -37t47.5 -23.5t65 -13.5t87 -12.5t94.5 -15.5q395 -77 395 -352q0 -75 -28.5 -135.5t-76.5 -100.5t-113 -66q-66 -26 -136 -38q-65 -11 -137 -11h-12q-272 2 -527 138z" />
<glyph unicode="t" horiz-adv-x="1034" d="M57 852v246h209v336h287v-336h334v-246h-334v-426q1 -102 51 -149.5t125 -49.5h5q94 0 200 68l80 -227q-152 -88 -318 -88q-195 0 -312.5 122t-117.5 314v436h-209z" />
<glyph unicode="u" horiz-adv-x="1347" d="M127 416v682h287v-670q0 -101 61.5 -157t151.5 -56q95 0 173 59t128 136v688h286v-1098h-264l-14 154q-26 -27 -55.5 -51.5t-82 -60t-121 -56.5t-140.5 -21q-82 0 -155 30t-130.5 85t-91 142t-33.5 194z" />
<glyph unicode="v" horiz-adv-x="1273" d="M4 1098h311l326 -744l320 744h311l-512 -1098h-238z" />
<glyph unicode="w" horiz-adv-x="1808" d="M27 1098h290l215 -740l246 740h252l246 -752l215 752h291l-344 -1098h-320l-215 686l-213 -686h-319z" />
<glyph unicode="x" horiz-adv-x="1269" d="M-10 0l461 580l-414 518h373l235 -312l248 312h350l-418 -525l457 -573h-371l-286 358l-285 -358h-350z" />
<glyph unicode="y" horiz-adv-x="1333" d="M12 1098h330l336 -776l356 776h330l-815 -1723h-330l301 623z" />
<glyph unicode="z" horiz-adv-x="1167" d="M102 0v172l564 680h-529v246h905v-183l-553 -669h574l2 -246h-963z" />
<glyph unicode="{" horiz-adv-x="724" d="M51 713q156 13 156 174v469q0 223 221 223h188v-178q-58 2 -84 -24.5t-26 -92.5v-418q0 -188 -176 -229v-12q176 -45 176 -230v-401q0 -66 26 -92.5t84 -24.5v-180h-188q-221 0 -221 225v453q0 49 -13.5 83.5t-38 52.5t-48.5 26.5t-54 11.5z" />
<glyph unicode="|" horiz-adv-x="827" d="M274 -190v1732h275v-1732h-275z" />
<glyph unicode="}" horiz-adv-x="724" d="M68 -123q58 -2 84 24.5t26 92.5v401q0 185 176 230v12q-176 41 -176 229v418q0 66 -26 92.5t-84 24.5v178h188q221 0 221 -223v-469q0 -161 156 -174l-2 -164q-30 -3 -54 -11.5t-48.5 -26.5t-38 -52.5t-13.5 -83.5v-453q0 -225 -221 -225h-188v180z" />
<glyph unicode="~" horiz-adv-x="1355" d="M86 719q46 124 134 209t206 96q63 6 121 -13t101 -49.5t83.5 -61t87 -50.5t92.5 -16q64 6 112.5 54.5t70.5 117.5l172 -86q-107 -282 -322 -304q-67 -7 -127.5 10t-106 47.5t-88 61t-90 52.5t-94.5 20q-128 -6 -192 -162z" />
<glyph unicode="&#xa1;" horiz-adv-x="679" d="M176 1135q0 66 47.5 112.5t112.5 46.5t112.5 -46t47.5 -113q0 -66 -47 -114t-113 -48t-113 48t-47 114zM182 -158l31 994h252l39 -994h-322z" />
<glyph unicode="&#xa2;" horiz-adv-x="1136" d="M92 707q-1 115 41 211t113.5 159t164 100t195.5 42l29 161l194 -32l-26 -146q139 -36 256 -110l-111 -220q-140 95 -291 95q-133 0 -222 -71t-89 -189q0 -121 91.5 -187.5t217.5 -66.5q159 0 289 104l113 -221q-191 -134 -408 -137l-26 -168l-195 32l27 162 q-161 47 -262 171t-101 311z" />
<glyph unicode="&#xa3;" horiz-adv-x="1462" d="M20 88l101 236q96 -61 192 -58q84 2 137.5 43.5t53.5 124.5v170h-174v266h172v189q0 111 37 196.5t100 135.5t139 75t162 25q161 0 324 -88l-88 -246q-106 65 -207 62q-68 -2 -113 -51t-45 -146v-152h217v-266h-217v-166q0 -120 -47 -162h604v-276h-1024q-161 0 -324 88z " />
<glyph unicode="&#xa4;" horiz-adv-x="1097" d="M76 1063l129 131l127 -129q85 45 188 45q108 0 193 -45l127 129l131 -131l-125 -125q53 -86 53 -197q0 -103 -49 -190l115 -115l-129 -133l-121 119q-83 -47 -195 -47q-102 0 -190 45l-119 -117l-129 135l111 109q-52 87 -52 194q0 108 56 199zM309 743q0 -91 62 -151 t149 -60q88 0 149.5 60t61.5 151q0 90 -61 149.5t-150 59.5q-85 0 -148 -60t-63 -149z" />
<glyph unicode="&#xa5;" horiz-adv-x="1589" d="M41 1434h369l385 -586l385 586h368l-522 -775h262v-176h-330v-51h330v-176h-330v-256h-333v256h-353v176h351v51h-351v176h289z" />
<glyph unicode="&#xa6;" horiz-adv-x="831" d="M274 -190v772h279v-772h-279zM274 748v794h279v-794h-279z" />
<glyph unicode="&#xa7;" horiz-adv-x="1243" d="M117 -4l100 223q217 -124 436 -121q92 2 150 26.5t57 72.5q0 18 -8.5 31.5t-26.5 24.5t-37.5 18.5t-52 15t-59 12.5t-69 13t-72.5 14q-82 17 -142.5 37t-118 54.5t-88.5 88.5t-32 125q0 150 127 246q-124 83 -127 235q-1 85 39 153.5t108.5 111.5t157.5 65t190 20 q189 -2 412 -92l-70 -235q-193 82 -348 82q-92 -1 -146.5 -30.5t-54.5 -74.5q0 -17 7.5 -29.5t24 -21.5t35.5 -15t48.5 -11t56.5 -9t66 -10t70 -12q395 -77 397 -330q0 -147 -127 -230q127 -89 127 -247q0 -74 -29 -133.5t-77 -98.5t-113.5 -65t-136.5 -37t-148 -10 q-269 3 -526 143zM442 651q0 -45 70 -66q35 -10 141 -26q92 2 150 26t57 72q0 17 -7.5 30t-25 23.5t-32.5 18t-48 15t-53 12t-63 12.5q-85 -4 -137 -38.5t-52 -78.5z" />
<glyph unicode="&#xa8;" horiz-adv-x="1323" d="M637 1731q0 55 38 91t93 36q53 0 91 -36t38 -91q0 -54 -39 -93t-90 -39q-52 0 -91.5 38.5t-39.5 93.5zM977 1731q0 55 38 91t93 36q53 0 91 -36t38 -91q0 -54 -39 -93t-90 -39q-52 0 -91.5 38.5t-39.5 93.5z" />
<glyph unicode="&#xa9;" horiz-adv-x="1583" d="M43 721q0 150 59.5 286.5t160 235.5t240 157t292.5 58t291 -58t238 -157t159 -235.5t59 -286.5q0 -202 -99.5 -373.5t-272 -272t-375.5 -100.5q-204 0 -377.5 100.5t-274 272t-100.5 373.5zM219 721q0 -117 46 -223.5t123.5 -183.5t183.5 -123t221 -46t221 46t183 123.5 t123 184t46 222.5q0 153 -77.5 284t-209 208t-284.5 77q-156 0 -288.5 -77t-210 -208t-77.5 -284zM358 715q0 101 37 183.5t99 134.5t140 80t163 28q173 3 327 -109l-84 -139q-108 78 -235 78q-122 0 -196.5 -70t-73.5 -184q0 -80 40 -137.5t100 -83t130 -25.5q134 0 235 88 l84 -145q-144 -119 -321 -119q-88 0 -167 28t-141 79.5t-99 132.5t-38 180z" />
<glyph unicode="&#xaa;" horiz-adv-x="962" d="M78 958q0 65 30.5 114.5t80 77t105 41t114.5 13.5q96 0 208 -59q3 85 -42.5 127.5t-137.5 42.5q-101 0 -217 -58l-57 134q146 73 301 73q163 0 260.5 -90.5t97.5 -243.5v-409h-192v80q-123 -94 -256 -94q-127 0 -211 69t-84 182zM121 403v203h719v-203h-719zM274 971 q0 -54 42.5 -87.5t103.5 -33.5q98 0 192 72v108q-86 55 -176 55q-70 0 -116 -30t-46 -84z" />
<glyph unicode="&#xab;" horiz-adv-x="1394" d="M57 553l492 545h291l-492 -545l498 -553h-291zM588 553l491 545h291l-491 -545l497 -553h-291z" />
<glyph unicode="&#xac;" horiz-adv-x="1400" d="M121 715v155h1159v-675h-168v520h-991z" />
<glyph unicode="&#xad;" horiz-adv-x="847" d="M72 602v240h704v-240h-704z" />
<glyph unicode="&#xae;" horiz-adv-x="1566" d="M43 721q0 150 59 286.5t158.5 235.5t237 157t288.5 58q150 0 287 -58t236.5 -157t158 -235.5t58.5 -286.5q0 -151 -58.5 -289t-158 -238t-236.5 -159.5t-287 -59.5q-202 0 -373 100.5t-270.5 272t-99.5 373.5zM211 721q0 -156 77.5 -288.5t209.5 -210t286 -77.5 t286.5 77.5t210 210.5t77.5 290q0 153 -77 283.5t-209 207t-286 76.5q-156 0 -288.5 -76.5t-209.5 -207.5t-77 -285zM492 324v774q117 20 272 20q164 0 268 -76.5t105 -218.5q0 -79 -36.5 -141.5t-99.5 -93.5l113 -264h-184l-76 198q-36 -8 -188 -8v-190h-174zM657 662 q51 2 121 2q94 -3 146.5 37t52.5 114q0 76 -55.5 119t-141.5 43q-80 0 -123 -6v-309z" />
<glyph unicode="&#xaf;" horiz-adv-x="1329" d="M616 1593v199h707v-199h-707z" />
<glyph unicode="&#xb0;" horiz-adv-x="823" d="M90 1329q0 135 93.5 226.5t232.5 91.5q146 0 234.5 -93.5t88.5 -224.5q0 -137 -87.5 -226t-235.5 -89q-137 0 -231.5 87t-94.5 228zM256 1325q0 -65 46 -113.5t118 -48.5t117 48.5t45 113.5q0 67 -44.5 114.5t-117.5 47.5q-72 0 -118 -48t-46 -114z" />
<glyph unicode="&#xb1;" horiz-adv-x="1239" d="M195 170v203h847v-203h-847zM203 846v201h305v319h223v-319h305v-201h-305v-318h-223v318h-305z" />
<glyph unicode="&#xb2;" horiz-adv-x="878" d="M106 653v109l338 295q80 69 80 123q0 38 -29 63t-75 25q-43 0 -79 -33.5t-54 -85.5l-168 49q34 107 123 167t192 60q107 0 192 -66.5t85 -174.5q0 -116 -101 -201l-209 -174h326v-156h-621z" />
<glyph unicode="&#xb3;" horiz-adv-x="811" d="M84 764l68 129q107 -76 223 -76q69 0 110 26t41 70q0 42 -36 68.5t-97 26.5h-127v127h123q51 0 82 24t31 60q0 37 -34 61.5t-93 24.5q-95 0 -189 -62l-63 125q127 80 266 80q114 0 197.5 -58t83.5 -153q0 -104 -101 -162q57 -20 93 -70t36 -108q0 -107 -92 -169t-219 -62 q-162 0 -303 98z" />
<glyph unicode="&#xb4;" horiz-adv-x="1382" d="M770 1663l145 313l287 -45l-217 -356z" />
<glyph unicode="&#xb5;" horiz-adv-x="1310" d="M127 416v682h287v-670q0 -101 61.5 -157t151.5 -56q95 0 173 59t128 136v688h286v-1098h-264l-14 154q-26 -27 -55.5 -51.5t-82 -60t-121 -56.5t-140.5 -21q-66 0 -140 23v-398h-266v754q-4 46 -4 72z" />
<glyph unicode="&#xb6;" horiz-adv-x="1806" d="M70 1022q3 526 698 526q155 0 225 -2h635l2 -1734h-244v1511h-143l-2 -1511h-299l2 661q-189 0 -270 4q-129 5 -236 39.5t-191 99t-131 168.5t-46 238z" />
<glyph unicode="&#xb7;" horiz-adv-x="481" d="M78 813q0 66 48 114t114 48t113.5 -48t47.5 -114q0 -68 -48.5 -116t-112.5 -48q-66 0 -114 48.5t-48 115.5z" />
<glyph unicode="&#xb8;" horiz-adv-x="1208" d="M389 -254l152 254h166l-136 -319z" />
<glyph unicode="&#xb9;" horiz-adv-x="630" d="M88 1321l162 111h160v-760h-179v567l-63 -49z" />
<glyph unicode="&#xba;" horiz-adv-x="1015" d="M92 1083q0 170 117.5 281t298.5 111q82 0 157 -27.5t133 -76.5t92 -124t34 -164q0 -78 -23.5 -143t-63 -110t-93 -76t-113 -45.5t-123.5 -14.5q-181 0 -298.5 102t-117.5 287zM113 403v203h790v-203h-790zM285 1085q0 -102 65.5 -162.5t159.5 -60.5q93 0 157 60t64 163 q0 104 -64 164t-157 60q-94 0 -159.5 -62t-65.5 -162z" />
<glyph unicode="&#xbb;" horiz-adv-x="1447" d="M10 0l498 553l-492 545h291l492 -545l-498 -553h-291zM541 0l497 553l-491 545h291l491 -545l-498 -553h-290z" />
<glyph unicode="&#xbc;" horiz-adv-x="1855" d="M176 1321l162 111h160v-760h-179v567l-63 -49zM258 0l928 1434h246l-930 -1434h-244zM999 150v120l377 496h199v-479h104v-137h-104v-150h-174v150h-402zM1180 285h223v278z" />
<glyph unicode="&#xbd;" horiz-adv-x="1935" d="M176 1321l162 111h160v-760h-179v567l-63 -49zM281 0l927 1434h246l-930 -1434h-243zM1139 2v109l338 295q79 68 79 122q0 38 -29 63t-75 25q-43 0 -79 -33t-54 -85l-168 49q34 107 123 167t192 60q107 0 192 -67t85 -175q0 -115 -101 -200l-208 -174h325v-156h-620z" />
<glyph unicode="&#xbe;" horiz-adv-x="2029" d="M176 764l68 129q107 -76 223 -76q69 0 110 26t41 70q0 42 -36 68.5t-97 26.5h-127v127h123q51 0 82 24t31 60q0 37 -34 61.5t-93 24.5q-94 0 -188 -62l-64 125q127 80 266 80q114 0 197.5 -58t83.5 -153q0 -104 -100 -162q57 -20 93 -70t36 -108q0 -107 -92.5 -169 t-219.5 -62q-162 0 -303 98zM440 0l928 1434h246l-930 -1434h-244zM1147 150v120l377 496h198v-479h105v-137h-105v-150h-174v150h-401zM1327 285h223v278z" />
<glyph unicode="&#xbf;" horiz-adv-x="1380" d="M182 242q0 73 22 130t57 94t77 68.5t84 62.5t77 66.5t57 89.5t22 124l305 2q0 -102 -21.5 -185t-56 -135.5t-76 -93.5t-83.5 -68.5t-76.5 -50.5t-56 -49.5t-21.5 -56.5q0 -60 54 -92.5t134 -24.5q78 8 131 53t96 141l252 -124q-61 -151 -180.5 -242t-271.5 -103 q-78 -6 -154 7t-142.5 45.5t-118 80t-81 115t-29.5 146.5zM571 1157q0 65 46.5 110.5t107.5 45.5q63 0 109.5 -46t46.5 -110q0 -63 -46.5 -108t-109.5 -45t-108.5 45t-45.5 108z" />
<glyph unicode="&#xc0;" horiz-adv-x="1574" d="M6 0l633 1434h297l633 -1434h-336l-113 283h-663l-111 -283h-340zM567 561h441l-222 555zM590 1931l287 45l145 -313l-215 -88z" />
<glyph unicode="&#xc1;" horiz-adv-x="1574" d="M6 0l633 1434h297l633 -1434h-336l-113 283h-663l-111 -283h-340zM567 561h441l-222 555zM618 1663l146 313l287 -45l-217 -356z" />
<glyph unicode="&#xc2;" horiz-adv-x="1574" d="M6 0l633 1434h297l633 -1434h-336l-113 283h-663l-111 -283h-340zM492 1659l192 258h213l193 -258l-158 -98l-139 223l-146 -225zM567 561h441l-222 555z" />
<glyph unicode="&#xc3;" horiz-adv-x="1574" d="M6 0l633 1434h297l633 -1434h-336l-113 283h-663l-111 -283h-340zM367 1642q19 95 91.5 156t174.5 60q55 -1 109 -22.5t89 -47t76 -46t74 -20.5q81 0 127 115l139 -61q-21 -98 -91 -162t-169 -64q-51 0 -103.5 20t-88.5 44t-80.5 44t-81.5 21q-42 4 -76 -24.5t-53 -83.5z M567 561h441l-222 555z" />
<glyph unicode="&#xc4;" horiz-adv-x="1574" d="M6 0l633 1434h297l633 -1434h-336l-113 283h-663l-111 -283h-340zM489 1731q0 55 38.5 91t93.5 36q53 0 91 -36t38 -91q0 -54 -39 -93t-90 -39q-52 0 -92 39t-40 93zM567 561h441l-222 555zM829 1731q0 55 38.5 91t93.5 36q53 0 91 -36t38 -91q0 -54 -39 -93t-90 -39 q-52 0 -92 39t-40 93z" />
<glyph unicode="&#xc5;" horiz-adv-x="1574" d="M6 0l633 1434h297l633 -1434h-336l-113 283h-663l-111 -283h-340zM510 1774q0 112 78 181.5t196 69.5q116 0 194.5 -69.5t78.5 -181.5q0 -115 -77.5 -181.5t-195.5 -66.5q-119 0 -196.5 66.5t-77.5 181.5zM567 561h441l-222 555zM668 1776q0 -46 34.5 -78.5t81.5 -32.5 q46 0 80.5 32t34.5 79q0 46 -35 78t-82 32q-45 0 -79.5 -32.5t-34.5 -77.5z" />
<glyph unicode="&#xc6;" horiz-adv-x="2129" d="M16 0l809 1434h1164v-277h-732v-307h555v-260h-555v-314h779v-276h-1086v403h-379l-213 -403h-342zM719 680h231v438l-2 -4z" />
<glyph unicode="&#xc7;" horiz-adv-x="1472" d="M98 700q0 168 59.5 310t163.5 239t246 152.5t305 58.5q235 5 471 -100l-100 -258q-170 87 -346 82q-93 -2 -178.5 -32t-156.5 -86t-113.5 -149.5t-42.5 -211.5q0 -119 42.5 -209.5t114 -142.5t156.5 -77.5t180 -25.5q181 0 342 90l111 -254q-192 -94 -373 -109l-135 -317 l-182 66l149 249q-147 11 -274.5 63t-226 141t-155.5 223t-57 298z" />
<glyph unicode="&#xc8;" horiz-adv-x="1355" d="M176 0v1434h1038v-277h-731v-307h555v-260h-555v-314h779v-276h-1086zM424 1909l287 45l145 -314l-215 -88z" />
<glyph unicode="&#xc9;" horiz-adv-x="1355" d="M176 0v1434h1038v-277h-731v-307h555v-260h-555v-314h779v-276h-1086zM545 1638l145 314l287 -45l-217 -357z" />
<glyph unicode="&#xca;" horiz-adv-x="1355" d="M176 0v1434h1038v-277h-731v-307h555v-260h-555v-314h779v-276h-1086zM440 1681l193 258h213l192 -258l-157 -98l-140 223l-145 -225z" />
<glyph unicode="&#xcb;" horiz-adv-x="1355" d="M176 0v1434h1038v-277h-731v-307h555v-260h-555v-314h779v-276h-1086zM428 1696q0 55 38 91t93 36q53 0 91 -36t38 -91q0 -54 -39 -92.5t-90 -38.5q-52 0 -91.5 38.5t-39.5 92.5zM768 1696q0 55 38 91t93 36q53 0 91 -36t38 -91q0 -54 -39 -92.5t-90 -38.5 q-52 0 -91.5 38.5t-39.5 92.5z" />
<glyph unicode="&#xcc;" horiz-adv-x="651" d="M31 1909l286 45l146 -314l-215 -88zM176 0v1434h299v-1434h-299z" />
<glyph unicode="&#xcd;" horiz-adv-x="651" d="M176 0v1434h299v-1434h-299zM180 1632l146 314l286 -45l-217 -357z" />
<glyph unicode="&#xce;" horiz-adv-x="651" d="M41 1659l192 258h213l193 -258l-158 -98l-139 223l-145 -225zM176 0v1434h299v-1434h-299z" />
<glyph unicode="&#xcf;" horiz-adv-x="651" d="M45 1700q0 55 38 91t93 36q53 0 91 -36t38 -91q0 -54 -39 -92.5t-90 -38.5q-52 0 -91.5 38.5t-39.5 92.5zM176 0v1434h299v-1434h-299zM385 1700q0 55 38 91t93 36q53 0 91 -36t38 -91q0 -54 -39 -92.5t-90 -38.5q-52 0 -91.5 38.5t-39.5 92.5z" />
<glyph unicode="&#xd0;" horiz-adv-x="1595" d="M49 653v181h150v600q200 4 387 4q154 -1 287.5 -25.5t249 -79.5t198 -136t129.5 -200t47 -266q0 -235 -116 -402.5t-321.5 -251t-481.5 -83.5q-242 0 -379 6v653h-150zM502 272q70 -3 145 0q87 4 164.5 22t147.5 54t121 87t80.5 125t29.5 163q0 96 -35 173t-89.5 125 t-127.5 80t-143.5 45t-141.5 13h-5q-4 0 -11 0.5t-17 1t-23 0.5h-27.5t-32 -0.5t-35.5 -1.5v-325h280v-181h-280v-381z" />
<glyph unicode="&#xd1;" horiz-adv-x="1683" d="M176 0v1434h301l721 -940v940h309v-1434h-290l-734 946v-946h-307zM412 1642q19 95 91.5 156t174.5 60q55 -1 109 -22.5t89 -47t76 -46t74 -20.5q81 0 127 115l139 -61q-21 -98 -91 -162t-169 -64q-51 0 -103.5 20t-88.5 44t-80.5 44t-81.5 21q-42 4 -76 -24.5t-53 -83.5 z" />
<glyph unicode="&#xd2;" horiz-adv-x="1736" d="M98 707q0 167 59.5 309t162.5 239t244.5 151t303.5 54q161 0 302.5 -54t245 -150.5t163 -238t59.5 -308.5q0 -162 -56 -302t-155.5 -240t-243.5 -157t-313 -57q-166 0 -308.5 55t-245 153t-160.5 239t-58 307zM408 707q0 -212 126 -345t336 -133q140 0 245.5 63.5 t159.5 171.5t54 245q0 211 -126.5 343t-334.5 132q-206 0 -333 -131.5t-127 -345.5zM594 1931l287 45l145 -313l-215 -88z" />
<glyph unicode="&#xd3;" horiz-adv-x="1736" d="M98 707q0 167 59.5 309t162.5 239t244.5 151t303.5 54q161 0 302.5 -54t245 -150.5t163 -238t59.5 -308.5q0 -162 -56 -302t-155.5 -240t-243.5 -157t-313 -57q-166 0 -308.5 55t-245 153t-160.5 239t-58 307zM408 707q0 -212 126 -345t336 -133q140 0 245.5 63.5 t159.5 171.5t54 245q0 211 -126.5 343t-334.5 132q-206 0 -333 -131.5t-127 -345.5zM657 1649l146 313l287 -45l-218 -356z" />
<glyph unicode="&#xd4;" horiz-adv-x="1736" d="M98 707q0 167 59.5 309t162.5 239t244.5 151t303.5 54q161 0 302.5 -54t245 -150.5t163 -238t59.5 -308.5q0 -162 -56 -302t-155.5 -240t-243.5 -157t-313 -57q-166 0 -308.5 55t-245 153t-160.5 239t-58 307zM408 707q0 -212 126 -345t336 -133q140 0 245.5 63.5 t159.5 171.5t54 245q0 211 -126.5 343t-334.5 132q-206 0 -333 -131.5t-127 -345.5zM561 1659l193 258h213l192 -258l-158 -98l-139 223l-145 -225z" />
<glyph unicode="&#xd5;" horiz-adv-x="1736" d="M98 707q0 167 59.5 309t162.5 239t244.5 151t303.5 54q161 0 302.5 -54t245 -150.5t163 -238t59.5 -308.5q0 -162 -56 -302t-155.5 -240t-243.5 -157t-313 -57q-166 0 -308.5 55t-245 153t-160.5 239t-58 307zM408 707q0 -212 126 -345t336 -133q140 0 245.5 63.5 t159.5 171.5t54 245q0 211 -126.5 343t-334.5 132q-206 0 -333 -131.5t-127 -345.5zM428 1642q19 95 91.5 156t174.5 60q55 -1 109 -22.5t89 -47t76 -46t74 -20.5q81 0 127 115l140 -61q-21 -98 -91 -162t-169 -64q-51 0 -103.5 20t-88.5 44t-81 44t-82 21q-42 4 -76 -24.5 t-53 -83.5z" />
<glyph unicode="&#xd6;" horiz-adv-x="1736" d="M98 707q0 167 59.5 309t162.5 239t244.5 151t303.5 54q161 0 302.5 -54t245 -150.5t163 -238t59.5 -308.5q0 -162 -56 -302t-155.5 -240t-243.5 -157t-313 -57q-166 0 -308.5 55t-245 153t-160.5 239t-58 307zM408 707q0 -212 126 -345t336 -133q140 0 245.5 63.5 t159.5 171.5t54 245q0 211 -126.5 343t-334.5 132q-206 0 -333 -131.5t-127 -345.5zM563 1720q0 55 38 91t93 36q53 0 91 -36t38 -91q0 -54 -39 -92.5t-90 -38.5q-52 0 -91.5 38.5t-39.5 92.5zM903 1720q0 55 38 91t93 36q53 0 91 -36t38 -91q0 -54 -39 -92.5t-90 -38.5 q-52 0 -91.5 38.5t-39.5 92.5z" />
<glyph unicode="&#xd7;" horiz-adv-x="1499" d="M158 143l422 426l-422 426l170 174l422 -428l424 428l167 -174l-421 -426l421 -426l-167 -174l-424 428l-422 -428z" />
<glyph unicode="&#xd8;" horiz-adv-x="1748" d="M98 711q0 224 103.5 397.5t280 266.5t395.5 93q138 0 260 -38l92 159l170 -98l-82 -145q156 -99 245 -262.5t89 -372.5q0 -164 -56.5 -305t-157 -242t-245.5 -158t-315 -57q-175 0 -320 59l-94 -166l-170 101l92 161q-136 102 -211.5 258t-75.5 349zM412 711 q0 -201 127 -338l450 796q-57 13 -112 13q-202 0 -333.5 -131.5t-131.5 -339.5zM702 266q80 -30 175 -30q137 0 243.5 63.5t162.5 171t56 240.5q0 115 -45.5 211.5t-126.5 160.5z" />
<glyph unicode="&#xd9;" horiz-adv-x="1630" d="M150 625v809h307v-824q0 -171 94 -274t260 -103t264.5 104.5t98.5 274.5v822h307v-799q0 -128 -34 -238.5t-95.5 -190.5t-144.5 -137t-182 -85.5t-208 -28.5q-104 0 -200.5 25.5t-182 79.5t-148.5 132t-99.5 189t-36.5 244zM547 1901l287 45l145 -314l-215 -88z" />
<glyph unicode="&#xda;" horiz-adv-x="1630" d="M150 625v809h307v-824q0 -171 94 -274t260 -103t264.5 104.5t98.5 274.5v822h307v-799q0 -128 -34 -238.5t-95.5 -190.5t-144.5 -137t-182 -85.5t-208 -28.5q-104 0 -200.5 25.5t-182 79.5t-148.5 132t-99.5 189t-36.5 244zM633 1638l145 314l287 -45l-217 -357z" />
<glyph unicode="&#xdb;" horiz-adv-x="1630" d="M150 625v809h307v-824q0 -171 94 -274t260 -103t264.5 104.5t98.5 274.5v822h307v-799q0 -128 -34 -238.5t-95.5 -190.5t-144.5 -137t-182 -85.5t-208 -28.5q-104 0 -200.5 25.5t-182 79.5t-148.5 132t-99.5 189t-36.5 244zM518 1679l193 258h213l192 -258l-158 -98 l-139 223l-145 -225z" />
<glyph unicode="&#xdc;" horiz-adv-x="1630" d="M150 625v809h307v-824q0 -171 94 -274t260 -103t264.5 104.5t98.5 274.5v822h307v-799q0 -128 -34 -238.5t-95.5 -190.5t-144.5 -137t-182 -85.5t-208 -28.5q-104 0 -200.5 25.5t-182 79.5t-148.5 132t-99.5 189t-36.5 244zM516 1696q0 55 38 91t93 36q53 0 91 -36 t38 -91q0 -54 -39 -92.5t-90 -38.5q-52 0 -91.5 38.5t-39.5 92.5zM856 1696q0 55 38 91t93 36q53 0 91 -36t38 -91q0 -54 -39 -92.5t-90 -38.5q-52 0 -91.5 38.5t-39.5 92.5z" />
<glyph unicode="&#xdd;" horiz-adv-x="1587" d="M41 1434h369l385 -586l385 586h368l-590 -875v-559h-333l-2 569zM625 1663l145 313l287 -45l-217 -356z" />
<glyph unicode="&#xde;" horiz-adv-x="1394" d="M176 0v1432l299 2v-164h225q136 -1 250 -33.5t201 -96t136 -165t50 -232.5q1 -108 -32 -198t-89 -151.5t-132 -105.5t-160 -65.5t-176 -25.5q-172 -7 -273 -7v-190h-299zM475 457q70 0 230 4q147 3 232 74.5t85 189.5q0 119 -88 192.5t-227 73.5q-35 0 -109.5 2t-122.5 2 v-538z" />
<glyph unicode="&#xdf;" horiz-adv-x="1511" d="M150 0v1128q0 108 37 193t100 136.5t141.5 77.5t167.5 26q148 0 272 -50.5t201.5 -151t77.5 -231.5q0 -68 -21 -119t-52 -77t-67.5 -46t-67.5 -29t-52 -22t-21 -30q0 -31 28.5 -42.5t108.5 -22.5l13.5 -1.5t12 -1.5t13.5 -2q215 -34 331 -125t116 -254 q1 -185 -140.5 -282t-381.5 -97q-198 0 -404 113l88 232q171 -102 326 -99q114 1 170.5 34t54.5 89q-1 24 -11 43t-29.5 32t-40.5 22.5t-53 17t-58.5 12.5t-64 12t-62.5 13q-51 12 -88.5 24t-80 35.5t-69.5 54t-45 79.5t-18 112q0 61 21 107.5t53 72t69 48t69 37t53 37.5 t21 52q0 66 -71 115t-162 47q-86 -2 -142.5 -53.5t-56.5 -135.5v-1130h-286z" />
<glyph unicode="&#xe0;" horiz-adv-x="1359" d="M92 565q0 100 28.5 188t78 153t114.5 112.5t140.5 71.5t154.5 24q113 0 201.5 -48t138.5 -122l6 154h273v-1098h-264l-9 135q-45 -65 -129 -108t-194 -43q-102 0 -199 41.5t-172.5 115t-121.5 184.5t-46 240zM362 561q0 -145 91.5 -236.5t224.5 -91.5q81 0 150.5 36 t119.5 96v346q-49 75 -123 119t-161 44q-123 0 -212.5 -85.5t-89.5 -227.5zM543 1636l286 45l146 -313l-215 -88z" />
<glyph unicode="&#xe1;" horiz-adv-x="1359" d="M92 565q0 100 28.5 188t78 153t114.5 112.5t140.5 71.5t154.5 24q113 0 201.5 -48t138.5 -122l6 154h273v-1098h-264l-9 135q-45 -65 -129 -108t-194 -43q-102 0 -199 41.5t-172.5 115t-121.5 184.5t-46 240zM362 561q0 -145 91.5 -236.5t224.5 -91.5q81 0 150.5 36 t119.5 96v346q-49 75 -123 119t-161 44q-123 0 -212.5 -85.5t-89.5 -227.5zM571 1368l146 313l287 -45l-218 -356z" />
<glyph unicode="&#xe2;" horiz-adv-x="1359" d="M92 565q0 100 28.5 188t78 153t114.5 112.5t140.5 71.5t154.5 24q113 0 201.5 -48t138.5 -122l6 154h273v-1098h-264l-9 135q-45 -65 -129 -108t-194 -43q-102 0 -199 41.5t-172.5 115t-121.5 184.5t-46 240zM362 561q0 -145 91.5 -236.5t224.5 -91.5q81 0 150.5 36 t119.5 96v346q-49 75 -123 119t-161 44q-123 0 -212.5 -85.5t-89.5 -227.5zM444 1364l193 258h213l192 -258l-157 -98l-140 223l-145 -225z" />
<glyph unicode="&#xe3;" horiz-adv-x="1359" d="M92 565q0 100 28.5 188t78 153t114.5 112.5t140.5 71.5t154.5 24q113 0 201.5 -48t138.5 -122l6 154h273v-1098h-264l-9 135q-45 -65 -129 -108t-194 -43q-102 0 -199 41.5t-172.5 115t-121.5 184.5t-46 240zM319 1348q19 95 92 155.5t175 59.5q55 -1 109 -22.5t89 -47 t76 -46t74 -20.5q81 0 127 115l139 -61q-21 -98 -91 -162t-169 -64q-51 0 -103.5 20t-88.5 44t-80.5 44t-81.5 21q-42 4 -76 -24.5t-53 -83.5zM362 561q0 -145 91.5 -236.5t224.5 -91.5q81 0 150.5 36t119.5 96v346q-49 75 -123 119t-161 44q-123 0 -212.5 -85.5 t-89.5 -227.5z" />
<glyph unicode="&#xe4;" horiz-adv-x="1359" d="M92 565q0 100 28.5 188t78 153t114.5 112.5t140.5 71.5t154.5 24q113 0 201.5 -48t138.5 -122l6 154h273v-1098h-264l-9 135q-45 -65 -129 -108t-194 -43q-102 0 -199 41.5t-172.5 115t-121.5 184.5t-46 240zM362 561q0 -145 91.5 -236.5t224.5 -91.5q81 0 150.5 36 t119.5 96v346q-49 75 -123 119t-161 44q-123 0 -212.5 -85.5t-89.5 -227.5zM442 1436q0 55 38 91t93 36q53 0 91 -36t38 -91q0 -54 -39 -92.5t-90 -38.5q-52 0 -91.5 38.5t-39.5 92.5zM782 1436q0 55 38 91t93 36q53 0 91 -36t38 -91q0 -54 -39 -92.5t-90 -38.5 q-52 0 -91.5 38.5t-39.5 92.5z" />
<glyph unicode="&#xe5;" horiz-adv-x="1359" d="M92 565q0 100 28.5 188t78 153t114.5 112.5t140.5 71.5t154.5 24q113 0 201.5 -48t138.5 -122l6 154h273v-1098h-264l-9 135q-45 -65 -129 -108t-194 -43q-102 0 -199 41.5t-172.5 115t-121.5 184.5t-46 240zM362 561q0 -145 91.5 -236.5t224.5 -91.5q81 0 150.5 36 t119.5 96v346q-49 75 -123 119t-161 44q-123 0 -212.5 -85.5t-89.5 -227.5zM463 1479q0 112 78 182t196 70q116 0 194.5 -70t78.5 -182q0 -115 -77.5 -181.5t-195.5 -66.5q-119 0 -196.5 66.5t-77.5 181.5zM621 1481q0 -46 34.5 -78.5t81.5 -32.5q46 0 80.5 32t34.5 79 q0 46 -35 78t-82 32q-45 0 -79.5 -32.5t-34.5 -77.5z" />
<glyph unicode="&#xe6;" horiz-adv-x="2232" d="M92 565q0 124 45 229.5t120 174t171 107t199 38.5q124 0 236.5 -55t195.5 -166q83 115 216 177t292 60q88 -1 167.5 -22.5t141 -59t112.5 -88.5t83 -111.5t51.5 -128t17.5 -138t-18 -140.5l-862 2q34 -108 128 -163.5t220 -53.5q185 2 354 138l141 -207 q-82 -71 -212.5 -123.5t-288.5 -52.5q-163 0 -305.5 60.5t-229.5 174.5q-85 -121 -200 -177t-236 -56q-105 0 -202 41.5t-172 115t-120 184t-45 240.5zM362 561q0 -145 91.5 -236.5t224.5 -91.5q81 0 150.5 36t119.5 96v346q-49 75 -123 119t-161 44q-123 0 -212.5 -85.5 t-89.5 -227.5zM1260 676h585q0 86 -74.5 147.5t-199.5 61.5q-113 0 -196 -54t-115 -155z" />
<glyph unicode="&#xe7;" horiz-adv-x="1236" d="M92 547q-1 138 53.5 251t144.5 183t200 107.5t227 37.5q243 0 434 -153l-127 -219q-114 127 -291 127q-153 0 -252.5 -96.5t-101.5 -235.5q-1 -142 98.5 -236t247.5 -94q172 0 297 129l137 -198q-173 -148 -391 -170l-123 -291l-182 65l135 228q-101 15 -190.5 58 t-160.5 112t-112.5 171t-42.5 224z" />
<glyph unicode="&#xe8;" horiz-adv-x="1357" d="M92 557q0 130 48.5 239.5t131.5 182.5t194 112.5t236 38.5q88 -1 167.5 -22.5t141 -59t112.5 -88.5t83 -111.5t51.5 -128t17.5 -138t-18 -140.5l-862 2q34 -108 128 -163.5t220 -53.5q186 2 355 138l141 -207q-82 -71 -213 -123.5t-289 -52.5q-126 0 -240.5 37 t-205.5 107t-145 181.5t-54 249.5zM395 676h586q0 86 -74.5 147.5t-199.5 61.5q-113 0 -196.5 -54t-115.5 -155zM446 1640l287 46l146 -314l-215 -88z" />
<glyph unicode="&#xe9;" horiz-adv-x="1357" d="M92 557q0 130 48.5 239.5t131.5 182.5t194 112.5t236 38.5q88 -1 167.5 -22.5t141 -59t112.5 -88.5t83 -111.5t51.5 -128t17.5 -138t-18 -140.5l-862 2q34 -108 128 -163.5t220 -53.5q186 2 355 138l141 -207q-82 -71 -213 -123.5t-289 -52.5q-126 0 -240.5 37 t-205.5 107t-145 181.5t-54 249.5zM395 676h586q0 86 -74.5 147.5t-199.5 61.5q-113 0 -196.5 -54t-115.5 -155zM563 1362l146 313l286 -45l-217 -356z" />
<glyph unicode="&#xea;" horiz-adv-x="1357" d="M92 557q0 130 48.5 239.5t131.5 182.5t194 112.5t236 38.5q88 -1 167.5 -22.5t141 -59t112.5 -88.5t83 -111.5t51.5 -128t17.5 -138t-18 -140.5l-862 2q34 -108 128 -163.5t220 -53.5q186 2 355 138l141 -207q-82 -71 -213 -123.5t-289 -52.5q-126 0 -240.5 37 t-205.5 107t-145 181.5t-54 249.5zM395 676h586q0 86 -74.5 147.5t-199.5 61.5q-113 0 -196.5 -54t-115.5 -155zM403 1389l193 258h213l192 -258l-157 -99l-139 223l-146 -225z" />
<glyph unicode="&#xeb;" horiz-adv-x="1357" d="M92 557q0 130 48.5 239.5t131.5 182.5t194 112.5t236 38.5q88 -1 167.5 -22.5t141 -59t112.5 -88.5t83 -111.5t51.5 -128t17.5 -138t-18 -140.5l-862 2q34 -108 128 -163.5t220 -53.5q186 2 355 138l141 -207q-82 -71 -213 -123.5t-289 -52.5q-126 0 -240.5 37 t-205.5 107t-145 181.5t-54 249.5zM395 676h586q0 86 -74.5 147.5t-199.5 61.5q-113 0 -196.5 -54t-115.5 -155zM412 1423q0 55 38 91t93 36q53 0 91 -36t38 -91q0 -54 -39 -92.5t-90 -38.5q-52 0 -91.5 38.5t-39.5 92.5zM752 1423q0 55 38 91t93 36q53 0 91 -36t38 -91 q0 -54 -39 -92.5t-90 -38.5q-52 0 -91.5 38.5t-39.5 92.5z" />
<glyph unicode="&#xec;" horiz-adv-x="573" d="M96 1595l287 45l145 -313l-215 -88zM143 0v1098h287v-1098h-287z" />
<glyph unicode="&#xed;" horiz-adv-x="573" d="M125 1327l145 313l287 -45l-217 -356zM143 0v1098h287v-1098h-287z" />
<glyph unicode="&#xee;" horiz-adv-x="577" d="M-20 1395l192 258h213l193 -258l-158 -99l-139 224l-146 -226zM143 0v1098h287v-1098h-287z" />
<glyph unicode="&#xef;" horiz-adv-x="573" d="M-4 1395q0 55 38 91t93 36q53 0 91 -36t38 -91q0 -54 -39 -92.5t-90 -38.5q-52 0 -91.5 38.5t-39.5 92.5zM143 0v1098h287v-1098h-287zM336 1395q0 55 38 91t93 36q53 0 91 -36t38 -91q0 -54 -39 -92.5t-90 -38.5q-52 0 -91.5 38.5t-39.5 92.5z" />
<glyph unicode="&#xf0;" horiz-adv-x="1316" d="M96 459q-15 201 113.5 343.5t329.5 151.5q200 10 370 -118q-51 160 -176.5 252t-283.5 116l67 275q163 -25 303 -101l150 205l219 -149l-158 -215q182 -198 207 -486q14 -164 -22.5 -302t-111.5 -231.5t-178.5 -150t-224.5 -67.5q-150 -13 -284 42t-221.5 170.5 t-98.5 264.5zM401 467q7 -98 79 -156.5t169 -52.5q105 8 183 91t98 214q-58 70 -137 108.5t-162 35.5q-102 -5 -169.5 -71.5t-60.5 -168.5z" />
<glyph unicode="&#xf1;" horiz-adv-x="1349" d="M133 0v1098h277l10 -187q184 207 395 207q176 0 294 -126t118 -351v-641h-289l2 616q0 113 -57 180.5t-156 67.5q-94 0 -175 -58t-132 -138v-668h-287zM266 1378q19 95 91.5 155.5t174.5 59.5q55 -1 109.5 -22.5t89.5 -46.5t76 -45.5t74 -20.5q81 0 127 115l139 -62 q-21 -98 -91 -161.5t-169 -63.5q-51 0 -103.5 20t-88.5 44t-81 44t-82 21q-42 4 -76 -24.5t-53 -83.5z" />
<glyph unicode="&#xf2;" d="M92 555q0 164 78.5 295t216.5 203.5t309 72.5q163 0 298 -67.5t218.5 -200t83.5 -305.5q0 -110 -33 -204t-90 -160.5t-134 -113t-163.5 -69t-179.5 -22.5q-123 0 -232 38.5t-192 109.5t-131.5 180.5t-48.5 242.5zM381 553q0 -155 90.5 -239.5t224.5 -84.5q61 0 116 20 t99 58.5t70.5 102t26.5 143.5q0 108 -45.5 183.5t-114 109t-152.5 33.5q-135 0 -225 -86t-90 -240zM475 1599l287 46l145 -314l-215 -88z" />
<glyph unicode="&#xf3;" d="M92 555q0 164 78.5 295t216.5 203.5t309 72.5q163 0 298 -67.5t218.5 -200t83.5 -305.5q0 -110 -33 -204t-90 -160.5t-134 -113t-163.5 -69t-179.5 -22.5q-123 0 -232 38.5t-192 109.5t-131.5 180.5t-48.5 242.5zM381 553q0 -155 90.5 -239.5t224.5 -84.5q61 0 116 20 t99 58.5t70.5 102t26.5 143.5q0 108 -45.5 183.5t-114 109t-152.5 33.5q-135 0 -225 -86t-90 -240zM504 1331l145 314l287 -46l-217 -356z" />
<glyph unicode="&#xf4;" d="M92 555q0 164 78.5 295t216.5 203.5t309 72.5q163 0 298 -67.5t218.5 -200t83.5 -305.5q0 -110 -33 -204t-90 -160.5t-134 -113t-163.5 -69t-179.5 -22.5q-123 0 -232 38.5t-192 109.5t-131.5 180.5t-48.5 242.5zM377 1327l192 258h213l193 -258l-158 -98l-139 223 l-146 -225zM381 553q0 -155 90.5 -239.5t224.5 -84.5q61 0 116 20t99 58.5t70.5 102t26.5 143.5q0 108 -45.5 183.5t-114 109t-152.5 33.5q-135 0 -225 -86t-90 -240z" />
<glyph unicode="&#xf5;" d="M92 555q0 164 78.5 295t216.5 203.5t309 72.5q163 0 298 -67.5t218.5 -200t83.5 -305.5q0 -110 -33 -204t-90 -160.5t-134 -113t-163.5 -69t-179.5 -22.5q-123 0 -232 38.5t-192 109.5t-131.5 180.5t-48.5 242.5zM252 1311q19 95 91.5 155.5t174.5 59.5q55 -1 109 -22.5 t89 -46.5t76 -45.5t74 -20.5q81 0 127 114l140 -61q-21 -97 -91.5 -161t-169.5 -64q-51 0 -103.5 20t-88.5 44t-80.5 44t-81.5 21q-42 4 -76 -25t-53 -84zM381 553q0 -155 90.5 -239.5t224.5 -84.5q61 0 116 20t99 58.5t70.5 102t26.5 143.5q0 108 -45.5 183.5t-114 109 t-152.5 33.5q-135 0 -225 -86t-90 -240z" />
<glyph unicode="&#xf6;" d="M92 555q0 164 78.5 295t216.5 203.5t309 72.5q163 0 298 -67.5t218.5 -200t83.5 -305.5q0 -110 -33 -204t-90 -160.5t-134 -113t-163.5 -69t-179.5 -22.5q-123 0 -232 38.5t-192 109.5t-131.5 180.5t-48.5 242.5zM381 553q0 -155 90.5 -239.5t224.5 -84.5q61 0 116 20 t99 58.5t70.5 102t26.5 143.5q0 108 -45.5 183.5t-114 109t-152.5 33.5q-135 0 -225 -86t-90 -240zM387 1399q0 55 38 91t93 36q53 0 91 -36t38 -91q0 -54 -39 -92.5t-90 -38.5q-52 0 -91.5 38.5t-39.5 92.5zM727 1399q0 55 38 91t93 36q53 0 91 -36t38 -91q0 -54 -39 -92.5 t-90 -38.5q-52 0 -91.5 38.5t-39.5 92.5z" />
<glyph unicode="&#xf7;" horiz-adv-x="1400" d="M121 502v157h1161v-157h-1161zM580 186q0 53 35.5 89t89.5 36h2q46 0 83 -37t37 -88q0 -49 -38 -89t-84 -40q-53 0 -89 39t-36 90zM582 977q0 51 37.5 89t85.5 38q51 0 87.5 -38t36.5 -89t-36.5 -88t-87.5 -37h-3q-46 0 -83 37.5t-37 87.5z" />
<glyph unicode="&#xf8;" d="M92 555q0 164 78.5 295t216.5 203.5t309 72.5q94 0 183 -24l71 139l166 -84l-67 -131q115 -75 181 -196t66 -277q0 -110 -33 -204t-90 -160.5t-134 -113t-163.5 -69t-179.5 -22.5q-92 0 -182 22l-78 -147l-166 84l72 137q-117 73 -183.5 194.5t-66.5 280.5zM344 553 q0 -163 109 -264l321 614q-36 8 -78 8q-147 0 -249.5 -98t-102.5 -260zM616 205q36 -8 80 -8q142 0 243 95.5t101 260.5t-102 264z" />
<glyph unicode="&#xf9;" horiz-adv-x="1347" d="M127 416v682h287v-670q0 -101 61.5 -157t151.5 -56q95 0 173 59t128 136v688h286v-1098h-264l-14 154q-26 -27 -55.5 -51.5t-82 -60t-121 -56.5t-140.5 -21q-82 0 -155 30t-130.5 85t-91 142t-33.5 194zM410 1645l286 45l146 -314l-215 -88z" />
<glyph unicode="&#xfa;" horiz-adv-x="1347" d="M127 416v682h287v-670q0 -101 61.5 -157t151.5 -56q95 0 173 59t128 136v688h286v-1098h-264l-14 154q-26 -27 -55.5 -51.5t-82 -60t-121 -56.5t-140.5 -21q-82 0 -155 30t-130.5 85t-91 142t-33.5 194zM512 1350l145 313l287 -45l-217 -356z" />
<glyph unicode="&#xfb;" horiz-adv-x="1347" d="M127 416v682h287v-670q0 -101 61.5 -157t151.5 -56q95 0 173 59t128 136v688h286v-1098h-264l-14 154q-26 -27 -55.5 -51.5t-82 -60t-121 -56.5t-140.5 -21q-82 0 -155 30t-130.5 85t-91 142t-33.5 194zM375 1395l192 258h213l193 -258l-158 -99l-139 224l-146 -226z" />
<glyph unicode="&#xfc;" horiz-adv-x="1347" d="M127 416v682h287v-670q0 -101 61.5 -157t151.5 -56q95 0 173 59t128 136v688h286v-1098h-264l-14 154q-26 -27 -55.5 -51.5t-82 -60t-121 -56.5t-140.5 -21q-82 0 -155 30t-130.5 85t-91 142t-33.5 194zM350 1450q0 55 38 91t93 36q53 0 91 -36t38 -91q0 -54 -39 -92.5 t-90 -38.5q-52 0 -91.5 38.5t-39.5 92.5zM690 1450q0 55 38 91t93 36q53 0 91 -36t38 -91q0 -54 -39 -92.5t-90 -38.5q-52 0 -91.5 38.5t-39.5 92.5z" />
<glyph unicode="&#xfd;" horiz-adv-x="1333" d="M12 1098h330l336 -776l356 776h330l-815 -1723h-330l301 623zM498 1327l145 313l287 -45l-217 -356z" />
<glyph unicode="&#xfe;" horiz-adv-x="1413" d="M168 -393v1827h285v-469q69 64 164 106.5t202 42.5q77 0 149 -23t136.5 -70.5t112.5 -115t76 -164t28 -209.5q0 -131 -39.5 -237.5t-106 -173t-150 -102t-175.5 -35.5q-116 0 -222.5 49t-174.5 119v-545h-285zM451 360q130 -137 290 -137q125 0 210 85.5t85 228.5 q0 145 -91 236t-224 91q-150 0 -270 -116v-388z" />
<glyph unicode="&#xff;" horiz-adv-x="1333" d="M12 1098h330l336 -776l356 776h330l-815 -1723h-330l301 623zM369 1395q0 55 38 91t93 36q53 0 91 -36t38 -91q0 -54 -39 -92.5t-90 -38.5q-52 0 -91.5 38.5t-39.5 92.5zM709 1395q0 55 38 91t93 36q53 0 91 -36t38 -91q0 -54 -39 -92.5t-90 -38.5q-52 0 -91.5 38.5 t-39.5 92.5z" />
<glyph unicode="&#x152;" horiz-adv-x="2615" d="M98 707q0 167 59.5 309t162.5 239t244.5 151t303.5 54q169 0 316 -58.5t252 -166.5v199h1038v-277h-731v-307h555v-260h-555v-314h778v-276h-1085v176q-103 -106 -247.5 -164.5t-318.5 -58.5q-166 0 -308.5 55t-245 153t-160.5 239t-58 307zM408 707q0 -212 126 -345 t336 -133q140 0 245.5 63.5t159.5 171.5t54 245q0 211 -126.5 343t-334.5 132q-206 0 -333 -131.5t-127 -345.5z" />
<glyph unicode="&#x153;" horiz-adv-x="2355" d="M92 555q0 164 78.5 295t216.5 203.5t309 72.5q149 0 277 -58t211 -165q83 114 216 176t290 60q88 -1 167.5 -22.5t141 -59t112.5 -88.5t83 -111.5t51.5 -128t17.5 -138t-18 -140.5l-863 2q34 -108 128.5 -163.5t220.5 -53.5q186 2 354 137l141 -207q-82 -71 -213 -123.5 t-289 -52.5q-160 0 -300 58t-228 169q-82 -114 -215.5 -173.5t-284.5 -59.5q-123 0 -232 38.5t-192 109.5t-131.5 180.5t-48.5 242.5zM381 553q0 -155 90.5 -239.5t224.5 -84.5q61 0 116 20t99 58.5t70.5 102t26.5 143.5q0 108 -45.5 183.5t-114 109t-152.5 33.5 q-135 0 -225 -86t-90 -240zM1382 684h586q0 86 -74.5 147.5t-199.5 61.5q-113 0 -196.5 -54t-115.5 -155z" />
<glyph unicode="&#x178;" horiz-adv-x="1587" d="M41 1434h369l385 -586l385 586h368l-590 -875v-559h-333l-2 569zM496 1731q0 55 38 91t93 36q53 0 91 -36t38 -91q0 -54 -39 -93t-90 -39q-52 0 -91.5 38.5t-39.5 93.5zM836 1731q0 55 38 91t93 36q53 0 91 -36t38 -91q0 -54 -39 -93t-90 -39q-52 0 -91.5 38.5 t-39.5 93.5z" />
<glyph unicode="&#x2c6;" horiz-adv-x="1277" d="M625 1659l192 258h213l193 -258l-158 -98l-139 223l-146 -225z" />
<glyph unicode="&#x2dc;" horiz-adv-x="1327" d="M489 1642q19 95 92 156t175 60q55 -1 109 -22.5t89 -47t76 -46t74 -20.5q81 0 127 115l139 -61q-21 -98 -91 -162t-169 -64q-51 0 -103.5 20t-88.5 44t-80.5 44t-81.5 21q-42 4 -76 -24.5t-53 -83.5z" />
<glyph unicode="&#x2000;" horiz-adv-x="1012" />
<glyph unicode="&#x2001;" horiz-adv-x="2025" />
<glyph unicode="&#x2002;" horiz-adv-x="1012" />
<glyph unicode="&#x2003;" horiz-adv-x="2025" />
<glyph unicode="&#x2004;" horiz-adv-x="675" />
<glyph unicode="&#x2005;" horiz-adv-x="506" />
<glyph unicode="&#x2006;" horiz-adv-x="337" />
<glyph unicode="&#x2007;" horiz-adv-x="337" />
<glyph unicode="&#x2008;" horiz-adv-x="253" />
<glyph unicode="&#x2009;" horiz-adv-x="405" />
<glyph unicode="&#x200a;" horiz-adv-x="112" />
<glyph unicode="&#x2010;" horiz-adv-x="847" d="M72 602v240h704v-240h-704z" />
<glyph unicode="&#x2011;" horiz-adv-x="847" d="M72 602v240h704v-240h-704z" />
<glyph unicode="&#x2012;" horiz-adv-x="847" d="M72 602v240h704v-240h-704z" />
<glyph unicode="&#x2013;" horiz-adv-x="976" d="M72 602v240h833v-240h-833z" />
<glyph unicode="&#x2014;" horiz-adv-x="1249" d="M72 602v240h1106v-240h-1106z" />
<glyph unicode="&#x2018;" horiz-adv-x="321" d="M-23 1286q-20 114 53.5 205.5t192.5 112.5l4 -93q-36 -13 -59.5 -41.5t-24.5 -68.5q53 22 104.5 -8.5t61.5 -94.5q10 -61 -27 -111t-100 -61q-71 -13 -131 30t-74 130z" />
<glyph unicode="&#x2019;" horiz-adv-x="321" d="M12 1530q-10 61 27 111t100 61q71 13 131 -30t74 -130q20 -113 -53.5 -204.5t-192.5 -112.5l-4 92q36 13 59.5 41.5t24.5 68.5q-53 -22 -104.5 8.5t-61.5 94.5z" />
<glyph unicode="&#x201a;" horiz-adv-x="491" d="M78 123q0 64 46 107.5t112 43.5q73 0 124.5 -52.5t51.5 -141.5q0 -118 -88.5 -197.5t-210.5 -79.5l10 95q38 6 66.5 31t37.5 63q-58 -12 -103.5 27t-45.5 104z" />
<glyph unicode="&#x201c;" horiz-adv-x="684" d="M-23 1286q-20 114 53.5 205.5t192.5 112.5l4 -93q-36 -13 -59.5 -41.5t-24.5 -68.5q53 22 104.5 -8.5t61.5 -94.5q10 -61 -27 -111t-100 -61q-71 -13 -131 30t-74 130zM340 1286q-20 114 53.5 205.5t192.5 112.5l4 -93q-36 -13 -59.5 -41.5t-24.5 -68.5q53 22 104.5 -8.5 t61.5 -94.5q10 -61 -27 -111t-100 -61q-71 -13 -131 30t-74 130z" />
<glyph unicode="&#x201d;" horiz-adv-x="692" d="M12 1530q-10 61 27 111t100 61q71 13 131 -30t74 -130q20 -113 -53.5 -204.5t-192.5 -112.5l-4 92q36 13 59.5 41.5t24.5 68.5q-53 -22 -104.5 8.5t-61.5 94.5zM383 1530q-10 61 27 111t100 61q71 13 131 -30t74 -130q20 -113 -53.5 -204.5t-192.5 -112.5l-4 92 q36 13 59.5 41.5t24.5 68.5q-53 -22 -104.5 8.5t-61.5 94.5z" />
<glyph unicode="&#x201e;" horiz-adv-x="870" d="M78 123q0 64 46 107.5t112 43.5q73 0 124.5 -52.5t51.5 -141.5q0 -118 -88.5 -197.5t-210.5 -79.5l10 95q38 6 66.5 31t37.5 63q-58 -12 -103.5 27t-45.5 104zM457 123q0 64 45.5 107.5t111.5 43.5q73 0 125 -52.5t52 -141.5q0 -118 -88.5 -197.5t-210.5 -79.5l10 95 q38 6 66.5 31t37.5 63q-58 -12 -103.5 27t-45.5 104z" />
<glyph unicode="&#x2022;" horiz-adv-x="821" d="M229 688q0 76 55 131t130 55t129.5 -55t54.5 -131q0 -77 -55.5 -131.5t-128.5 -54.5q-75 0 -130 55t-55 131z" />
<glyph unicode="&#x2026;" horiz-adv-x="1382" d="M78 133q0 66 48 114t114 48t113.5 -48t47.5 -114q0 -68 -48.5 -116t-112.5 -48q-66 0 -114 48.5t-48 115.5zM535 133q0 66 47.5 114t113.5 48t114 -48t48 -114q0 -68 -49 -116t-113 -48q-66 0 -113.5 48.5t-47.5 115.5zM979 133q0 66 48 114t114 48t114 -48t48 -114 q0 -68 -49 -116t-113 -48q-66 0 -114 48.5t-48 115.5z" />
<glyph unicode="&#x202f;" horiz-adv-x="405" />
<glyph unicode="&#x2039;" horiz-adv-x="864" d="M57 553l492 545h289l-492 -545l498 -553h-289z" />
<glyph unicode="&#x203a;" horiz-adv-x="917" d="M12 0l498 553l-492 545h289l492 -545l-498 -553h-289z" />
<glyph unicode="&#x205f;" horiz-adv-x="506" />
<glyph unicode="&#x20ac;" horiz-adv-x="1476" d="M61 494v157h115q-2 23 -2 68v24h-113v162h132q53 264 243 417t445 153q253 0 452 -148l-108 -219q-153 104 -318 104q-145 0 -247.5 -80.5t-143.5 -226.5h494v-162h-518v-24q0 -45 2 -68h516v-157h-482q46 -127 141.5 -199t231.5 -72q190 0 334 125l121 -215 q-192 -176 -475 -176q-251 0 -436 142.5t-246 394.5h-138z" />
<glyph unicode="&#x2122;" horiz-adv-x="2088" d="M41 1155v279h852v-279h-272v-551h-308v551h-272zM981 604v830h268l240 -314l250 314h268v-830h-305v375l-215 -281l-199 275v-369h-307z" />
<glyph unicode="&#x25fc;" horiz-adv-x="1095" d="M0 0v1096h1096v-1096h-1096z" />
</font>
</defs>
</svg>
